<svg xmlns="http://www.w3.org/2000/svg" xmlns:xlink="http://www.w3.org/1999/xlink" width="2000" zoomAndPan="magnify" viewBox="0 0 1500 1499.999933" height="2000" preserveAspectRatio="xMidYMid meet" version="1.0"><defs><clipPath id="b96ea9cfeb"><path d="M 295.621094 295.621094 L 1204.621094 295.621094 L 1204.621094 1204.621094 L 295.621094 1204.621094 Z M 295.621094 295.621094 " clip-rule="nonzero"/></clipPath></defs><path fill="#000000" d="M 878.601562 873.023438 C 888.910156 896.859375 886.09375 921.707031 886.253906 946.246094 C 886.410156 970.714844 886.40625 995.1875 886.238281 1019.65625 C 886.097656 1037.851562 871.445312 1049.984375 854.550781 1046.277344 C 842.769531 1043.691406 834.492188 1033.433594 834.464844 1020.765625 C 834.390625 986.183594 834.265625 951.601562 834.621094 917.023438 C 834.796875 899.789062 829.71875 884.835938 818.078125 872.171875 C 810.582031 864.015625 807.851562 854.71875 811.867188 844.246094 C 815.757812 834.085938 823.707031 829.375 834.398438 827.386719 C 854 823.742188 873.902344 820.597656 892.808594 814.535156 C 936.488281 800.523438 962.0625 769.332031 971.394531 724.871094 C 977.117188 697.617188 979.777344 670.085938 972.789062 642.554688 C 968.28125 624.800781 959.871094 608.960938 947.367188 595.605469 C 938.222656 585.835938 936.035156 575.488281 940.5625 562.816406 C 947.304688 543.9375 948 524.550781 943.03125 503.828125 C 936.226562 506.144531 929.472656 507.613281 923.503906 510.636719 C 908.402344 518.289062 893.296875 526.066406 878.882812 534.914062 C 869.214844 540.851562 860 542.621094 849.011719 539.78125 C 796.097656 526.085938 743.144531 526.109375 690.152344 539.847656 C 679.414062 542.632812 670.144531 541.261719 660.882812 534.992188 C 642.78125 522.726562 623.738281 512.125 602.597656 505.84375 C 600.707031 505.285156 598.765625 504.914062 596.390625 504.347656 C 592.460938 518.8125 592.144531 532.992188 594.816406 547.203125 C 596.007812 553.523438 597.914062 559.734375 599.863281 565.878906 C 603.003906 575.773438 601.6875 584.84375 594.644531 592.457031 C 571.578125 617.375 561.335938 646.785156 562.675781 680.558594 C 563.605469 703.914062 566.441406 726.882812 575.148438 748.777344 C 589.265625 784.257812 616.164062 805.785156 651.769531 816.613281 C 668.492188 821.695312 685.898438 824.777344 703.171875 827.738281 C 720.707031 830.746094 731.078125 841.523438 728.761719 857.410156 C 728.023438 862.480469 725.398438 867.980469 721.996094 871.835938 C 709.695312 885.777344 704.445312 901.644531 704.730469 920.175781 C 705.238281 953.535156 704.976562 986.910156 704.851562 1020.277344 C 704.792969 1035.59375 693.824219 1046.886719 679.347656 1047.082031 C 664.78125 1047.277344 653.523438 1035.714844 653.375 1020.128906 C 653.234375 1005.601562 653.34375 991.070312 653.34375 977.304688 C 640.121094 977.304688 627.421875 977.988281 614.824219 977.167969 C 584.777344 975.214844 559.753906 962.109375 539.347656 940.355469 C 530.097656 930.492188 521.804688 919.730469 513.179688 909.292969 C 506.054688 900.671875 498.648438 893.03125 487.386719 889.132812 C 474.898438 884.8125 469.183594 869.964844 473.488281 857.421875 C 477.910156 844.542969 491.28125 837.453125 504.546875 840.859375 C 521.679688 845.253906 535.046875 855.417969 546.359375 868.488281 C 554.5625 877.960938 562.429688 887.730469 570.175781 897.582031 C 591.859375 925.160156 620.152344 930.890625 652.605469 923.128906 C 653.210938 914.496094 653.292969 905.996094 654.542969 897.667969 C 655.765625 889.535156 658.183594 881.582031 660.121094 873.359375 C 650.882812 870.542969 641.183594 867.933594 631.722656 864.640625 C 562.539062 840.558594 524.976562 790.667969 514.285156 719.394531 C 510.070312 691.304688 508.632812 663.085938 515.125 635 C 520.289062 612.644531 529.527344 592.175781 543.171875 573.757812 C 545.523438 570.589844 546.359375 567.777344 545.460938 563.820312 C 538.171875 531.746094 540.820312 500.402344 553.0625 469.886719 C 558.148438 457.214844 566.550781 452.121094 580.09375 451.488281 C 612.0625 449.996094 639.976562 462.265625 666.246094 478.015625 C 678.835938 485.5625 689.964844 486.925781 704.011719 484.132812 C 751.984375 474.605469 800.085938 475.992188 847.871094 486.277344 C 853.382812 487.464844 857.621094 486.917969 862.496094 483.933594 C 886.199219 469.417969 910.890625 456.90625 938.699219 452.496094 C 947.191406 451.152344 956.089844 451.148438 964.675781 451.925781 C 974.917969 452.851562 981.992188 459.058594 985.894531 468.679688 C 998.492188 499.734375 1001.332031 531.589844 994.121094 564.386719 C 993.566406 566.917969 994.191406 570.519531 995.695312 572.578125 C 1020.988281 607.238281 1030.839844 646.117188 1028.25 688.585938 C 1026.53125 716.785156 1022.183594 744.421875 1011.136719 770.636719 C 990.238281 820.214844 952.347656 850.523438 901.921875 866.449219 C 894.457031 868.804688 886.847656 870.710938 878.601562 873.023438 Z M 878.601562 873.023438 " fill-opacity="1" fill-rule="nonzero"/><g clip-path="url(#b96ea9cfeb)"><path fill="#252825" d="M 587.519531 1174.433594 C 530.886719 1152.78125 479.253906 1120.300781 435.117188 1077.828125 C 390.976562 1035.355469 356.417969 985.386719 332.265625 929.589844 C 308.945312 875.457031 296.871094 818.410156 295.621094 759.28125 C 294.371094 700.152344 304.367188 642.691406 325.601562 587.726562 C 347.253906 531.097656 379.734375 479.460938 422.207031 435.324219 C 464.679688 391.1875 514.648438 356.625 570.445312 332.472656 C 624.578125 309.15625 681.625 297.078125 740.753906 295.832031 C 799.882812 294.582031 857.34375 304.574219 912.308594 325.8125 C 968.941406 347.464844 1020.574219 379.941406 1064.710938 422.414062 C 1108.851562 464.886719 1143.410156 514.855469 1167.5625 570.652344 C 1190.882812 624.785156 1202.957031 681.832031 1204.207031 740.960938 C 1205.453125 800.089844 1195.460938 857.554688 1174.226562 912.519531 C 1152.570312 969.148438 1120.09375 1020.78125 1077.621094 1064.921875 C 1035.148438 1109.058594 985.179688 1143.621094 929.382812 1167.769531 C 875.25 1191.089844 818.203125 1203.164062 759.074219 1204.414062 C 755.742188 1204.414062 752.828125 1204.414062 749.496094 1204.414062 C 693.699219 1204.414062 639.152344 1194.421875 587.519531 1174.433594 Z M 741.585938 346.214844 C 633.738281 348.296875 532.96875 392.433594 458.433594 470.300781 C 383.898438 548.167969 343.925781 650.601562 346.007812 758.449219 C 348.089844 866.296875 392.226562 967.066406 470.09375 1041.601562 C 545.878906 1114.472656 644.980469 1154.03125 749.914062 1154.03125 C 752.828125 1154.03125 755.328125 1154.03125 758.242188 1154.03125 C 866.089844 1151.949219 966.859375 1107.808594 1041.394531 1029.941406 C 1115.929688 952.074219 1155.902344 849.640625 1153.820312 741.792969 C 1151.738281 633.945312 1107.601562 533.179688 1029.734375 458.640625 C 953.949219 385.773438 854.847656 346.214844 749.914062 346.214844 C 644.980469 346.214844 744.5 346.214844 741.585938 346.214844 Z M 741.585938 346.214844 " fill-opacity="1" fill-rule="nonzero"/></g></svg>