<svg xmlns="http://www.w3.org/2000/svg" xmlns:xlink="http://www.w3.org/1999/xlink" width="2000" zoomAndPan="magnify" viewBox="0 0 1500 1499.999933" height="2000" preserveAspectRatio="xMidYMid meet" version="1.0"><defs><clipPath id="bc69c01552"><path d="M 608.183594 450 L 891.683594 450 L 891.683594 1050 L 608.183594 1050 Z M 608.183594 450 " clip-rule="nonzero"/></clipPath></defs><g clip-path="url(#bc69c01552)"><path fill="#000000" d="M 826.378906 549.421875 L 891.8125 549.421875 L 891.8125 450.769531 L 808.257812 450.769531 L 808.257812 451.144531 C 698.40625 455.171875 675.753906 516.703125 673.867188 581.761719 L 673.617188 581.761719 L 673.617188 650.214844 L 608.183594 650.214844 L 608.183594 748.992188 L 673.617188 748.992188 L 673.617188 1049.230469 L 791.019531 1049.230469 L 791.019531 748.992188 L 875.199219 748.992188 L 891.8125 650.214844 L 791.019531 650.214844 L 791.019531 588.933594 C 791.019531 567.164062 805.613281 549.421875 826.378906 549.421875 Z M 826.378906 549.421875 " fill-opacity="1" fill-rule="nonzero"/></g></svg>