<svg xmlns="http://www.w3.org/2000/svg" xmlns:xlink="http://www.w3.org/1999/xlink" width="2000" zoomAndPan="magnify" viewBox="0 0 1500 1499.999933" height="2000" preserveAspectRatio="xMidYMid meet" version="1.0"><defs><clipPath id="c8ba1d9ada"><path d="M 450 450 L 1050 450 L 1050 1050 L 450 1050 Z M 450 450 " clip-rule="nonzero"/></clipPath></defs><g clip-path="url(#c8ba1d9ada)"><path fill="#000000" d="M 625.675781 452.0625 C 593.769531 453.5625 571.976562 458.675781 552.929688 466.136719 C 533.203125 473.824219 516.5 484.113281 499.882812 500.816406 C 483.234375 517.519531 473.003906 534.25 465.402344 554.003906 C 458.027344 573.109375 453.023438 594.898438 451.609375 626.835938 C 450.199219 658.796875 449.886719 669 450.027344 750.453125 C 450.167969 831.875 450.535156 842.105469 452.0625 874.097656 C 453.589844 906.003906 458.675781 927.765625 466.136719 946.84375 C 473.824219 966.570312 484.113281 983.246094 500.816406 999.890625 C 517.519531 1016.539062 534.25 1026.742188 554.003906 1034.371094 C 573.082031 1041.746094 594.898438 1046.777344 626.804688 1048.164062 C 658.796875 1049.574219 669 1049.886719 750.425781 1049.71875 C 831.875 1049.574219 842.078125 1049.207031 874.070312 1047.683594 C 905.976562 1046.15625 927.738281 1041.039062 946.816406 1033.609375 C 966.542969 1025.890625 983.246094 1015.632812 999.863281 998.929688 C 1016.480469 982.226562 1026.710938 965.496094 1034.34375 945.742188 C 1041.71875 926.664062 1046.75 904.847656 1048.132812 872.96875 C 1049.519531 840.976562 1049.859375 830.742188 1049.71875 749.320312 C 1049.574219 667.898438 1049.179688 657.695312 1047.683594 625.703125 C 1046.15625 593.769531 1041.070312 572.007812 1033.609375 552.929688 C 1025.890625 533.203125 1015.632812 516.527344 998.929688 499.882812 C 982.226562 483.265625 965.496094 473.003906 945.742188 465.402344 C 926.664062 458.027344 904.847656 452.996094 872.9375 451.609375 C 840.945312 450.199219 830.714844 449.886719 749.292969 450.027344 C 667.871094 450.167969 657.667969 450.535156 625.675781 452.0625 M 629.179688 994.15625 C 599.957031 992.882812 584.074219 988.023438 573.476562 983.953125 C 559.457031 978.527344 549.480469 972.023438 538.941406 961.597656 C 528.425781 951.113281 521.925781 941.136719 516.445312 927.171875 C 512.347656 916.605469 507.398438 900.75 506.015625 871.496094 C 504.515625 839.902344 504.179688 830.40625 504.035156 750.339844 C 503.894531 670.300781 504.179688 660.804688 505.5625 629.179688 C 506.804688 599.957031 511.695312 584.074219 515.765625 573.503906 C 521.191406 559.488281 527.664062 549.511719 538.121094 538.96875 C 548.605469 528.453125 558.582031 521.953125 572.570312 516.472656 C 583.140625 512.34375 598.996094 507.429688 628.21875 506.042969 C 659.84375 504.546875 669.3125 504.234375 749.378906 504.066406 C 829.445312 503.894531 838.941406 504.179688 870.566406 505.589844 C 899.789062 506.863281 915.671875 511.695312 926.242188 515.792969 C 940.257812 521.21875 950.265625 527.664062 960.777344 538.148438 C 971.289062 548.632812 977.820312 558.582031 983.273438 572.601562 C 987.398438 583.140625 992.316406 599.023438 993.703125 628.21875 C 995.199219 659.84375 995.539062 669.339844 995.679688 749.378906 C 995.820312 829.445312 995.539062 838.941406 994.15625 870.535156 C 992.882812 899.757812 988.023438 915.671875 983.953125 926.242188 C 978.527344 940.230469 972.054688 950.234375 961.570312 960.75 C 951.082031 971.234375 941.136719 977.761719 927.117188 983.246094 C 916.574219 987.371094 900.691406 992.289062 871.496094 993.675781 C 839.871094 995.171875 830.40625 995.511719 750.3125 995.652344 C 670.273438 995.792969 660.777344 995.511719 629.152344 994.125 M 873.644531 589.585938 C 873.675781 609.453125 889.839844 625.535156 909.679688 625.476562 C 929.546875 625.449219 945.628906 609.3125 945.601562 589.445312 C 945.570312 569.574219 929.40625 553.496094 909.539062 553.523438 C 889.671875 553.550781 873.589844 569.71875 873.617188 589.558594 M 595.886719 750.167969 C 596.058594 835.210938 665.128906 904 750.140625 903.828125 C 835.179688 903.660156 904 834.617188 903.828125 749.574219 C 903.660156 664.5625 834.585938 595.746094 749.546875 595.886719 C 664.535156 596.058594 595.71875 665.128906 595.886719 750.167969 M 649.894531 750.054688 C 649.8125 694.859375 694.464844 650.007812 749.660156 649.925781 C 804.855469 649.8125 849.707031 694.464844 849.820312 749.6875 C 849.933594 804.882812 805.25 849.734375 750.054688 849.820312 C 694.859375 849.933594 650.007812 805.25 649.925781 750.054688 " fill-opacity="1" fill-rule="nonzero"/></g></svg>