<svg xmlns="http://www.w3.org/2000/svg" width="1000" height="1000"><path fill="#fefefe" d="M0 0h1000v1000H0z"/><path fill="#020439" d="m416.15 259.77 3.551-.001c3.842.001 7.683.017 11.525.033l8.028.008q9.456.012 18.911.043c7.183.022 14.366.033 21.548.043 14.762.021 29.524.058 44.286.101v37l-10.119.013c-11.084.017-22.168.061-33.252.119-6.714.035-13.429.06-20.143.064-6.491.004-12.981.033-19.471.077q-3.699.02-7.396.013c-24.051-.336-24.051-.336-44.619 10.714-7.973 8.429-7.42 18.093-7.34 28.963l-.002 4.851c-.001 4.371.017 8.742.038 13.114.019 4.575.02 9.15.024 13.725.009 8.655.034 17.311.064 25.966.034 9.857.05 19.715.065 29.572q.048 30.404.151 60.809l3.027.84 3.911 1.098 1.998.552c4.951 1.397 4.951 1.397 6.064 2.51 2.016.234 4.039.413 6.063.563l3.347.253 2.59.184v2h6v2l3.125-.187c4.237.205 6.139 1.298 9.875 3.187q3.385 1.043 6.813 1.938c6.961 1.929 13.239 4.077 19.25 8.125 2.813 1.855 5.42 2.794 8.582 3.882 4.234 1.896 7.927 4.663 11.718 7.313 2.577 1.866 2.577 1.866 5.637 2.742v2c2.332 1.206 4.497 2.166 7 3v-134h-58v-39h95l11 12c3.27 3.295 3.27 3.295 6.625 6.5 1.812 1.976 3.005 4.198 4.375 6.5 3.131 4.362 6.871 7.625 11 11v2l1.762.711c2.755 1.587 4.13 3.387 6.051 5.914 5.629 7.239 11.541 13.859 18.171 20.199 2.088 2.253 3.508 4.51 5.016 7.176 2.772 3.962 2.772 3.962 7 6v2h2l1 3c1.633 1.7 3.307 3.361 5 5a327 327 0 0 1 3.043 3.297l1.565 1.715q1.599 1.76 3.195 3.523c2.765 3.148 2.765 3.148 6.197 5.465v-91c13-11 13-11 15-11v-2l2.16-1.758 2.903-2.367 3.035-2.473a230 230 0 0 0 6.902-5.964c3-2.438 3-2.438 6-2.438v168l-23 1-3 1c-2.573.07-5.116.094-7.687.063l-2.127-.014c-4.985-.034-6.055-.88-9.678-4.346-1.508-1.703-1.508-1.703-2.504-3.734-1.128-2.213-2.243-3.203-4.191-4.719-3.476-2.853-6.336-6.001-9.239-9.426-1.647-1.962-1.647-1.962-3.949-4.136-1.625-1.688-1.625-1.688-2.625-4.688l-1.848-.762c-2.482-1.428-3.219-2.57-4.589-5.05-2.151-3.63-4.454-6.296-7.563-9.188a1096 1096 0 0 1-4.312-4.312l-2.114-2.114-1.574-1.574v-3h-2v-2h-2v-2h-2c-3.255-3.165-6.32-6.327-9-10v-2l-1.875-.937c-4.125-2.063-4.125-2.063-5.371-4.204-2.219-3.617-4.922-6.524-7.816-9.609l-1.643-1.785c-2.822-3.142-2.822-3.142-6.295-5.465v124c-7 4-7 4-10 5v2l-2.312.75c-2.924 1.36-3.988 2.566-5.688 5.25h-2v2c-3 2-3 2-7 2l-1-3-7-3v-2h-2v-2l-2.187-.75c-2.813-1.25-2.813-1.25-5-3.125-3.242-2.449-6.375-3.638-10.153-5.062-2.572-1.028-4.961-2.21-7.41-3.5-6.181-3.169-12.697-5.302-19.25-7.563a436 436 0 0 1-4.125-1.562c-11.049-4.203-11.049-4.203-22.633-6.227-11.073-1.042-11.073-1.042-13.242-3.211-2.35-.235-4.705-.414-7.062-.562l-3.911-.254-3.027-.184v-2h-12l-1-1a61 61 0 0 0-4.035-.316l-2.451-.127-2.576-.119-2.588-.131q-3.175-.159-6.35-.307v-2h-16q-.106-35.35-.155-70.7c-.016-10.944-.037-21.888-.071-32.831q-.045-14.319-.056-28.636c-.004-5.049-.013-10.097-.035-15.145q-.03-7.146-.022-14.294a904 904 0 0 0-.018-5.208c-.073-11.39 1.01-22.035 3.357-33.186h2v-4h2l.438-1.812c.449-1.749.991-3.475 1.562-5.188h2l.281-1.703c2.472-7.9 11.107-15.628 17.719-20.297h3v-2l3-1 1-2c2.309-.93 4.573-1.74 6.938-2.5l1.9-.644c9.44-3.099 18.396-4.149 28.313-4.083"/><path fill="#e64000" d="M653 337v168l-23 1-3 1c-2.573.07-5.116.094-7.688.062l-2.126-.013c-4.985-.034-6.055-.88-9.678-4.346C606 501 606 501 605.004 498.969c-1.128-2.213-2.243-3.203-4.192-4.719-3.475-2.853-6.335-6.001-9.238-9.426-1.647-1.962-1.647-1.962-3.949-4.136C586 479 586 479 585 476l-1.848-.762c-2.482-1.428-3.219-2.57-4.59-5.05-2.15-3.63-4.453-6.296-7.562-9.188a1031 1031 0 0 1-4.312-4.312l-2.114-2.114L563 453v-3h-2v-2h-2v-2h-2c-3.255-3.165-6.32-6.328-9-10v-2l-1.875-.938C542 431 542 431 540.754 428.859c-2.219-3.617-4.922-6.524-7.816-9.609l-1.643-1.785c-2.822-3.142-2.822-3.142-6.295-5.465v124h-1V355c9 9 9 9 11.078 11.086a308 308 0 0 0 4.672 4.539c2.472 2.609 4.302 5.359 6.25 8.375 3.154 4.35 6.866 7.621 11 11v2l1.762.711c2.755 1.587 4.13 3.387 6.05 5.914 5.63 7.239 11.542 13.858 18.172 20.199 2.088 2.253 3.507 4.51 5.016 7.176 2.772 3.962 2.772 3.962 7 6v2h2l1 3c1.633 1.7 3.307 3.36 5 5a327 327 0 0 1 3.043 3.297l1.564 1.715q1.6 1.76 3.196 3.523c2.765 3.148 2.765 3.148 6.197 5.465v-91c13-11 13-11 15-11v-2l2.16-1.758 2.902-2.367 3.036-2.473a232 232 0 0 0 6.902-5.964c3-2.438 3-2.438 6-2.438"/><path fill="#e44101" d="m632.94 613.875 3.229.027q3.917.036 7.833.098v2l1.801-.063c12.073.301 21.034 9.956 29.199 18.063 2.969 3.496 5.025 6.861 7 11l1 1 1 7 1 1c.088 1.927.107 3.857.098 5.785l-.01 3.545-.025 3.733-.014 3.744q-.018 4.596-.049 9.193h-3l-.335 2.664c-1.976 9.924-9.29 19.73-17.665 25.336h-2v2h-4v2c-3.088 1.765-4.233 2-8 2v2c-6.055 2.125-11.555 2.269-17.937 2.187l-2.881-.001c-5.479-.034-10.761-.386-16.182-1.186l-1-3-1.898-.402-2.476-.535-2.461-.528c-2.165-.535-2.165-.535-4.165-1.535v-2l-1.816-.789c-2.333-1.294-3.481-2.506-5.121-4.586-1.856-2.274-3.393-3.879-5.75-5.688-2.827-2.368-3.962-4.526-5.313-7.937v-4h-2c-4.127-17.695-3.322-33.744 5-50h2l.626-1.625c1.954-3.377 4.557-5.68 7.374-8.375h2v-2q2.869-1.514 5.75-3l3.235-1.687c3.015-1.313 3.015-1.313 7.015-1.313v-2c6.342-2.285 12.246-2.233 18.938-2.125"/><path fill="#090b3c" d="m197.625 614.81 2.695.002c16.546.109 27.612 4.814 39.235 16.572 1.445 1.614 1.445 1.614 3.445 4.614l-1 4-1.715.585-2.222.789-2.215.774c-2.035.704-2.035.704-2.848 2.852-3.527 2.441-6.826 2.16-11 2v-2h-2v-2h-2v-3c-3.226-.853-6.466-1.477-9.75-2.063l-2.984-.535-2.266-.402v-2q-4.344.464-8.687.937l-2.475.264c-3.993.436-7.915.912-11.838 1.799v2l-2.313 1.312c-4.716 2.962-6.267 5.605-8.312 10.812-2.292 5.792-2.292 5.792-3.375 6.876-.451 8.696-.515 16.314 4 24 1.546 1.725 1.546 1.725 3 3v2l2.063.624c3.309 1.549 5.414 3.491 7.996 6.036 4.983 3.439 11.997 2.459 17.816 2.402l2.664-.014a1740 1740 0 0 0 6.461-.048l1-3 1.645-.735c5.546-2.574 5.546-2.574 9.355-7.265h2l.437-1.813c.45-1.749.992-3.474 1.563-5.187h-30v-19h53c1.873 1.872 1.166 4.54 1.19 7.032-.011 9.821-.21 18.156-5.19 26.968l-1.082 1.921a580 580 0 0 1-2.918 5.079h-2v2c-4.75 3-4.75 3-7 3v2h-3v2c-10.752 6.869-20.734 8.254-33.313 8.312l-3.146.017c-8.526-.081-14.993-1.839-22.666-5.642l-3.57-1.738c-3.387-1.998-5.662-4.058-8.305-6.949-.692-.73-1.384-1.46-2.098-2.211C146 690.88 146 690.88 146 684.998h-2v-5h-2c-.058-4.375-.094-8.75-.125-13.126l-.051-3.75-.019-3.632-.032-3.333c.24-3.344 1.038-6.037 2.227-9.159h2l.563-2.938c2.73-9.452 11.491-17.161 19.707-21.98 10.374-5.547 19.598-7.433 31.355-7.27"/><path fill="#e44303" d="M472 616h20l2 4h2c3.058 3.554 5.601 6.965 8 11 1.582 1.751 1.582 1.751 3 3v2l4 1 .688 2.125c1.158 2.538 2.134 3.956 3.937 6C518 648 518 648 518 651h2v3h2v3l1.75.125c3.398 1.321 4.35 3.824 6.25 6.875l2.562 3.062C538 673.615 538 673.615 538 677l4 1v-62h21v100h-20c-3.798-4.431-6.224-7.331-9-12a89 89 0 0 0-4-4v-2l-4-2v-3l-3-1-.688-2.188c-1.568-3.361-3.668-5.233-6.312-7.812a199 199 0 0 1-3-5c-1.582-1.751-1.582-1.751-3-3v-2l-1.805-.746c-2.548-1.456-3.657-2.917-5.32-5.316-1.986-2.984-1.986-2.984-4.875-4.938a101 101 0 0 1-2-6h-3v61l-1 1h-21q-.035-19.532-.052-39.063-.007-9.068-.023-18.137-.016-8.744-.02-17.487-.003-3.343-.011-6.688-.01-4.665-.008-9.332l-.01-2.822c.01-6.357.01-6.357 1.124-7.471"/><path fill="#e34103" d="M341 518c10.914-.33 21.543.566 32.382 1.727 2.467.257 4.934.488 7.403.711 7.966.749 15.552 1.944 23.283 4.021 7.231 1.942 14.562 3.247 21.932 4.541v2l2.938-.188c3.017 0 5.4.506 8.242 1.508l2.383.827L442 534q2.301.771 4.605 1.535L466 542v2l2.617.82c3.311 1.155 6.365 2.504 9.508 4.055l3.07 1.492c2.77 1.612 4.621 3.315 6.805 5.633 2.133 1.235 2.133 1.235 4 2v2c3.416 2.102 6.022 2.487 10 2a116 116 0 0 0 5-4c2.812-.75 2.812-.75 5-1v-3c3-2 3-2 6-2v-2l6-1v-3l2.375-.875c2.722-.974 2.722-.974 4.625-3.125 1.848-.746 1.848-.746 4.062-1.438l2.43-.777L540 539c5.25-1.661 10.102-3.445 15-6 5.001-2.313 9.824-3.839 15.188-5.062 5.097-1.094 5.097-1.094 9.91-3.028 2.71-1.296 5.161-1.271 8.152-1.41a253 253 0 0 0 16.5-1.5l2.095-.252c3.695-.45 3.695-.45 7.155-1.748 3.601-.318 7.203-.512 10.812-.719 3.082-.075 3.082-.075 5.188-1.281 1.813-.085 3.63-.107 5.445-.098l3.262.01 3.418.026 3.441.013q4.218.02 8.434.049l-1 14h-3v6c-2.564 1.282-4.529 1.211-7.398 1.316l-3.366.128-3.611.118-3.659.129c-10.325.339-20.637.415-30.966.309v2l-3 .367c-8.199.95-8.199.95-16.25 2.695-3.075.769-5.506 1.081-8.625 1.25-11.005.875-22.362 4.244-32.02 9.563-2.102 1.123-4.174 1.954-6.417 2.75-3.576 1.198-3.576 1.198-6.126 2.875-4.779 2.798-10.2 4.211-15.562 5.5v2c-10.674 5-10.674 5-14 5-1.801-.932-3.601-1.876-5.316-2.957-2.129-1.319-4.353-2.133-6.684-3.043a341 341 0 0 1-3.812-1.938c-3.244-1.642-6.493-2.979-9.911-4.21-3.861-1.444-7.646-3.07-11.445-4.668L459 556l-2.602-1.129c-2.329-.846-4.127-1.126-6.586-1.246-3.528-.319-6.212-1.108-9.437-2.563-5.625-2.452-11.31-3.022-17.348-3.667C420 547 420 547 419 546c-1.662-.208-3.33-.367-5-.5-4.889-.389-4.889-.389-6-1.5a156 156 0 0 0-6-.5c-5.889-.389-5.889-.389-7-1.5a298 298 0 0 0-9.062-.5c-5.309-.221-10.514-.545-15.783-1.259-4.534-.507-9.099-.621-13.655-.803l-3.07-.131q-3.715-.158-7.43-.307c-2.153-3.23-2.772-5.611-3.625-9.375l-.789-3.398c-.516-2.842-.704-5.351-.586-8.227"/><path fill="#050738" d="M442 620v2h4l4 4-1 5h-2l-.867 1.734L441 643c-4.173-.522-7.325-2.096-10.996-4.012-2.588-1.276-5.244-2.16-8.004-2.988v-2q-4.281-.04-8.562-.062l-2.424-.026c-8.94-.191-8.94-.191-17.014 3.088-2.468 3.507-2.16 6.827-2 11l3 2v2h5v3l2.5.148c9.226.598 18.34 1.627 27.5 2.852v2l2.75.438c2.465.426 4.838.913 7.25 1.562v2l1.688.75c2.712 1.466 4.948 3.28 7.312 5.25v2h2c3.184 7.826 4.74 16.053 2.309 24.363-2.97 6.399-7.814 12.653-14.309 15.637h-3v2c-10.57 3.111-19.898 4.549-31 4q-2.366-.069-4.73-.133-2.417-.086-4.832-.179l-2.273-.068c-4.745-.237-7.974-1.201-12.165-3.62a203 203 0 0 0-5-2v-2l-2.625-.25c-3.852-.856-6.223-2.424-9.375-4.75l4-8h2v-3h2l.375-1.812C373 690 373 690 375 687l4 1 1 3 2.301.621 3.011.817 2.989.808c1.914.535 3.813 1.125 5.699 1.754v2c4.542.087 9.083.141 13.625.188l3.895.076 3.769.029 3.46.048c3.857-.405 7.434-1.524 10.251-4.341v-9c-5.477-4.56-9.332-5.799-16.375-6.188C398.052 676.79 386.539 673.28 375 664l-3-2c-1.998-3.049-2.2-5.397-2-9h-2a856 856 0 0 1-.125-7.688l-.051-2.185c-.038-4.176.297-7.376 2.176-11.127h2l.262-1.777c.942-2.837 2.264-3.889 4.55-5.785l2.083-1.754L381 621l1.789-1.609c3.078-1.936 6.242-2.489 9.773-3.079l2.254-.379c14.12-2.162 34.382-3.464 47.184 4.067"/><path fill="#060a3b" d="M271 616h76v19l-54 1v21h45v18h-45v22h54v19h-76z"/><path fill="#e54b0c" d="M789 617h72v18c-2.44 1.22-3.999 1.121-6.725 1.114l-2.972-.001-3.217-.015-3.287-.005q-5.212-.01-10.424-.031l-7.055-.013q-8.66-.017-17.32-.049v20h42c4.955 4.955 1 13.992 1 21h-43v19h52v19l-1 1h-72z"/><path fill="#e44b0d" d="M692 616h83v19c-7.087 7.087-19.984 1.655-30 2l-1 80h-21l-1-1v-80h-30z"/><path fill="#fdfaf8" d="M644.375 636c5.468 2.542 9.454 5.839 12.625 11 .676 2.246.676 2.246 1 4h2c2.397 5.353 2.367 10.028 2.375 15.812l.074 2.909c.033 8.015-1.907 14.239-7.574 20.091-6.948 6.354-14.997 6.469-24 6.626l-2.567.068c-8.797-.034-15.032-3.522-21.308-9.506-1.75-2.688-1.75-2.688-3-5l-2-2c-3.034-9.103-3.133-18.916 0-28 3.364-6.211 8.618-12.541 15.187-15.375L620 636l2.297-1.012c7.167-2.62 15.059-1.61 22.078 1.012"/><path fill="#e44000" d="m637 294 1 2 6 2 1 3 2 1v8l-2.117 1.863-2.758 2.449-2.742 2.426c-2.515 2.22-2.515 2.22-4.383 5.262h-3l-1 3a101 101 0 0 1-5.188 4.312c-4.221 3.365-8.1 6.775-11.812 10.688h-2v2h-2v2h-2v2l-2.562 2c-3.312 2.746-6.05 5.855-8.825 9.133A77 77 0 0 1 592 362h-2l-1 3-5 1v2h-2v2c-8 6-8 6-10.562 6-3.692-1.074-4.187-1.553-6.485-4.391-4.576-5.427-9.601-10.365-14.641-15.359l-2.837-2.824a5071 5071 0 0 0-5.204-5.171q-3.142-3.12-6.271-6.255c0-5.934 1.114-6.406 5.043-10.375 2.551-2.119 4.675-2.545 7.957-2.625 4.847 4.028 9.183 8.193 13.258 13 2.753 3.161 5.739 6.079 8.742 9 3.647-.555 4.982-1.774 7.25-4.625 3.053-3.665 6.308-6.763 9.953-9.832 1.684-1.446 3.25-2.953 4.797-4.543h2l.785-1.812c1.307-2.353 2.556-3.529 4.653-5.188 2.6-2.135 4.704-4.159 6.562-7h2v-2l1.434-1.215c5.448-4.683 10.54-9.654 15.566-14.785h2v-2c4.5-4 4.5-4 9-4"/><path fill="#0b0e3c" d="M341 518c10.914-.33 21.543.566 32.382 1.727 2.467.257 4.934.488 7.403.711 7.966.749 15.552 1.944 23.283 4.021 7.231 1.942 14.562 3.247 21.932 4.541v2l2.938-.188c3.017 0 5.4.506 8.242 1.508l2.383.827L442 534q2.301.771 4.605 1.535L466 542v2l2.617.82c3.311 1.155 6.365 2.504 9.508 4.055l3.07 1.492c2.77 1.612 4.621 3.315 6.805 5.633 2.133 1.235 2.133 1.235 4 2v2l1.688.812c2.509 1.289 4.905 2.717 7.312 4.188v8c-6.488-.837-12.308-4.117-18.062-7.062-3.158-1.601-6.333-2.887-9.661-4.086-3.861-1.444-7.646-3.07-11.445-4.668L459 556l-2.602-1.129c-2.329-.846-4.127-1.126-6.586-1.246-3.528-.319-6.212-1.108-9.437-2.563-5.625-2.452-11.31-3.022-17.348-3.667C420 547 420 547 419 546c-1.662-.208-3.33-.367-5-.5-4.889-.389-4.889-.389-6-1.5a156 156 0 0 0-6-.5c-5.889-.389-5.889-.389-7-1.5a298 298 0 0 0-9.062-.5c-5.309-.221-10.514-.545-15.783-1.259-4.534-.507-9.099-.621-13.655-.803l-3.07-.131q-3.715-.158-7.43-.307c-2.153-3.23-2.772-5.611-3.625-9.375l-.789-3.398c-.516-2.842-.704-5.351-.586-8.227"/><path fill="#e43f00" d="m619 619 1 3 2 2-1 5h5l-3 2 4 1v2c-7.33 3.833-7.33 3.833-11 4.75-5.574 2.323-9.481 6.998-12.812 11.938-3.6 10.04-4.626 18.726-3.188 29.312h-2v-3h-3l-1.25 1.438c-1.932 1.725-3.232 2.128-5.75 2.562l-2 4h-2l-.621-2.152-.817-2.786-.808-2.777c-.544-2.225-.544-2.225-1.754-3.285-.563-11.743-.829-22.379 5-33a241 241 0 0 1 5-5c1.151-2.041 2.014-4.07 2.91-6.23 1.362-2.211 2.72-2.809 5.09-3.77v-2c7.154-4.345 12.654-5.714 21-5"/><path fill="#0c113c" d="M427 531c3.726-.287 6.661.101 10.148 1.32l2.398.827L442 534a1552 1552 0 0 0 4.605 1.535L466 542v2l2.617.82c3.311 1.155 6.365 2.504 9.508 4.055l3.07 1.492c2.77 1.612 4.621 3.315 6.805 5.633 2.133 1.235 2.133 1.235 4 2v2l1.688.812c2.509 1.289 4.905 2.717 7.312 4.188v8c-6.488-.837-12.308-4.117-18.062-7.062-3.158-1.601-6.333-2.887-9.661-4.086-3.861-1.444-7.646-3.07-11.445-4.668L459 556l-2.602-1.129c-2.329-.846-4.127-1.126-6.586-1.246-3.528-.319-6.212-1.108-9.437-2.563-5.625-2.452-11.31-3.022-17.348-3.667C420 547 420 547 419 546c-1.662-.208-3.33-.367-5-.5-4.889-.389-4.889-.389-6-1.5a156 156 0 0 0-6-.5c-5.889-.389-5.889-.389-7-1.5a67 67 0 0 0-4.254-.316l-2.588-.127-2.72-.119A1930 1930 0 0 0 376 541v-1c4.062-.197 8.125-.381 12.188-.562l3.486-.17 3.369-.147 3.094-.143c2.766.021 5.179.382 7.863 1.022v2l2.75-1c3.25-1 3.25-1 7.25-1v2c7.136-.283 7.136-.283 13-4h-6l2-4 4-1z"/><path fill="#e13f02" d="m564 533 1 4h6v2l2 2-6 2-1 3h-4l-1 3-2.273.48c-6.299 1.436-11.72 3.274-17.411 6.325-2.18 1.125-4.319 2-6.628 2.82-3.576 1.198-3.576 1.198-6.126 2.875-4.779 2.798-10.2 4.211-15.562 5.5v2c-9.41 4.408-9.41 4.408-14 5l2-1v-8l-3-1 1.688-.75c2.446-1.22 2.446-1.22 4.75-3.312 2.651-2.005 4.305-2.566 7.562-2.938v-3c3-2 3-2 6-2v-2l6-1v-3l2.375-.875c2.722-.974 2.722-.974 4.625-3.125 1.953-.781 1.953-.781 4.25-1.5 2.648-.832 5.222-1.683 7.812-2.688 2.647-.731 4.26-.851 6.938-.75 4.014.123 6.493-1.069 10-3.062 2.375-.688 2.375-.688 4-1"/><path fill="#0a0e3c" d="M442 620v2h4l4 4-1 5h-2l-.867 1.734L441 643c-4.173-.522-7.325-2.096-10.996-4.012-2.588-1.276-5.244-2.16-8.004-2.988v-2l-1.941.035c-5.146.054-9.989-.153-15.059-1.035v-1h7v-2l-5-2v-2l3-1 1-2 4-1c-3.053-.158-3.053-.158-6 1l1-3q-3.844-.04-7.688-.062l-2.185-.026c-3.843-.017-7.393.153-11.127 1.088v2h-3c.564 3.27 1.5 4.826 4 7l-3 1v-2l-8-2 2-1v-2l-4 1c4.919-5.095 8.501-7.509 15.562-8.688l2.254-.379c14.12-2.162 34.382-3.464 47.184 4.067"/><path fill="#000235" d="m375 687 4 1 1 3 2.301.621 3.011.817 2.989.808c1.914.535 3.813 1.125 5.699 1.754v2l28 1v1l-27 1 6 1v2l4-1v4l-2 1 3 1-1 5 21 1v-2h6v3c-9.136 2.858-17.489 3.373-27 3l-2.328-.063a602 602 0 0 1-7.234-.249l-2.272-.068c-4.745-.237-7.975-1.2-12.166-3.62a203 203 0 0 0-5-2v-2l-2.625-.25c-3.852-.856-6.223-2.424-9.375-4.75l4-8h2v-3h2l.375-1.812C373 690 373 690 375 687m30 14 3 1Zm0 3 2 1-2 1z"/><path fill="#e24504" d="M592 630v7l-1.812.688c-4.624 2.774-6.648 8.884-8.391 13.804-1.013 4.458-1.205 8.699-1.235 13.258l-.03 2.436c.078 5.372 1.216 8.964 3.468 13.814v4c2.784-1.392 2.979-3.156 4-6h6l1-3 3 1v3h2l-1.062-3.312c-1.364-5.31-.668-10.318.062-15.688h1l.367 3.105.508 4.083.238 2.041c.73 5.749 1.694 9.753 5.887 13.771l.938 1.938c1.295 2.515 3.005 4.142 5.062 6.062l-2 1-1 6 3 1-2.312.438c-2.77.525-2.77.525-5.688 1.562v2l3 2h-3l5 1 1 5c10.134 5.103 20.912 4.821 32 5v1q-5.25.042-10.5.062l-2.977.026c-5.61.019-10.975-.249-16.523-1.088l-1-3-1.898-.402-2.477-.536-2.461-.527C603 712 603 712 601 711v-2l-1.816-.789c-2.333-1.294-3.482-2.506-5.122-4.586-1.856-2.274-3.392-3.879-5.75-5.687-2.826-2.369-3.962-4.527-5.312-7.938v-4h-2c-4.128-17.695-3.322-33.744 5-50h2l.875-1.875C590 632 590 632 592 630"/><path fill="#e33f00" d="m637 294 1 2 6 2 1 3 2 1v8l-2.117 1.863-2.758 2.449-2.742 2.426c-2.515 2.22-2.515 2.22-4.383 5.262h-3l-1 3a103 103 0 0 1-5.312 4.5l-2.926 2.344A341 341 0 0 1 616 337v-5h3l1-3h4v-4l1-1c-2.076-.553-3.844-1-6-1-1.461-2.647-2-3.894-2-7l-2-1v2h-2l-1 4-3-1 1 4-1.645.77-2.167 1.042-2.145 1.02c-2.054 1.174-3.459 2.424-5.043 4.168h-2v3l-6 1 2-3h2l.785-1.812c1.307-2.353 2.556-3.529 4.653-5.188 2.6-2.135 4.704-4.159 6.562-7h2v-2l1.434-1.215c5.448-4.683 10.54-9.654 15.566-14.785h2v-2c4.5-4 4.5-4 9-4"/><path fill="#070a3d" d="M220 618c9.414 2.354 17.701 10.051 23 18l-1 4-1.715.586-2.223.789-2.214.773c-2.035.705-2.035.705-2.848 2.852-3.527 2.442-6.826 2.161-11 2v-2h-2v-2h-2v-3c-3.226-.853-6.466-1.476-9.75-2.062l-2.984-.536L203 637v-2h-11v-1h12l1 1h7v-3l2-1-7-1-1-4-3 2-4-1 2-3 1-2 4-1-1-2h8v2h5l-1 3 7-1v-2h-4z"/><path fill="#040636" d="M431 499c8.232 2.031 15.977 4.291 23.062 9.062 2.421 1.597 4.142 2.452 6.813 3.376 4.463 1.55 8.221 3.935 12.125 6.562v1h-6l-3 4h-2l1 5 6 3 5-2 2 4-1 3-3.5-1.812c-3.371-1.689-6.746-3.062-10.289-4.336-3.607-1.39-7.093-3.04-10.598-4.668-4.798-2.173-9.539-3.77-14.613-5.184-3.336-.99-6.668-1.994-10-3v-1h6v-2h-2l1-1.812c1.208-2.242 1.208-2.242 1-5.188 2-2.188 2-2.188 4-4l-6-2z"/><path fill="#000436" d="M345 525c2.025 1.933 3.421 3.632 5 6l2-1-2 5h19l2-4 2 2h6v3h2v2h11l.438-3.812c.299-2.615.72-4.662 1.562-7.188 9.758-4.365 21.942.016 32 2l1 2 3 2-2.938 1.375c-3.133 1.283-3.133 1.283-4.062 3.625l7-1-5 5h-9v-2l-10 2v-2l-2.706.016q-4.973.025-9.947.039-2.152.008-4.303.02-3.095.018-6.189.023l-3.761.016C376 540 376 540 373 539c-1.991-.15-3.985-.248-5.98-.316l-3.526-.127-3.682-.119-3.716-.131A3070 3070 0 0 0 347 538c-1.676-3.143-2.23-5.168-2.125-8.75l.055-2.422z"/><path fill="#060739" d="m170 684 3 2v2l2.25.812c2.616 1.13 4.552 2.397 6.75 4.188v2l-2 1 6 4c-1.976 1.976-3.523 2.896-6 4.125l-2.125 1.07C176 706 176 706 174 706v3h3v3l5-2v-5c4.75-1.125 4.75-1.125 7 0v-3l2 1c-.507 4.361-1.363 7.451-4 11l-3 1c2.461 1.231 4.258 1.206 7.008 1.316l2.988.127 3.129.119 3.152.131q3.862.16 7.723.307v1c-3.854.058-7.708.094-11.562.125l-3.292.051c-8.843.054-15.306-1.541-23.271-5.488l-3.57-1.739c-4.784-2.822-8.129-6.435-11.305-10.949l2-1 .375-2.812C158 693 158 693 160 690l-1-2 1-3 2.812 1.062c3.168 1.262 3.168 1.262 6.188-.062z"/><path fill="#020438" d="M180 695c4.75.875 4.75.875 7 2v2h10v1l9.312.5 2.67.145 2.569.136 2.364.127c1.694.075 3.39.092 5.085.092l2 1-1 2.875c-1.102 2.896-1.102 2.896-1 5.125h4l-1 4c-8.143 3-15.964 3.302-24.562 3.312l-3.247.016c-7.803-.069-7.803-.069-11.191-2.328l5-3v-3h2v-6l-1-1v3h-6v5l-2 2h-4v-3h-3v-3l11-6-6-3z"/><path fill="#000135" d="M402 418h64v3h2v5c-2.79 1.395-5.072 1.12-8.194 1.114l-3.943-.001-4.277-.015-4.363-.005a5503 5503 0 0 1-11.492-.024c-3.908-.011-7.815-.015-11.723-.02-22.991-.032-22.991-.032-24.008-1.049-.125-2.875-.125-2.875 0-6z"/><path fill="#242844" d="M402 440h64c2 2 2 2 2.125 4.625C468 447 468 447 466 449h-64c-1-1-1-1-1.062-3.875C401 442 401 442 402 440"/><path fill="#0e133e" d="M427 531c3.726-.287 6.661.101 10.148 1.32l2.398.827L442 534a1552 1552 0 0 0 4.605 1.535L466 542v2h-7l-2 5-5-1-1-2-2 2h-5v2h4v2l4 1c-4.489.39-7.382-.016-11.5-1.875-5.679-2.484-11.375-3.079-17.473-3.73C420 547 420 547 419 546c-1.662-.208-3.33-.367-5-.5-4.889-.389-4.889-.389-6-1.5a156 156 0 0 0-6-.5c-5.889-.389-5.889-.389-7-1.5a67 67 0 0 0-4.254-.316l-2.588-.127-2.72-.119A1930 1930 0 0 0 376 541v-1c4.062-.197 8.125-.381 12.188-.562l3.486-.17 3.369-.147 3.094-.143c2.766.021 5.179.382 7.863 1.022v2l2.75-1c3.25-1 3.25-1 7.25-1v2c7.136-.283 7.136-.283 13-4h-6l2-4 4-1z"/><path fill="#000025" d="M402 462h64c2 2 2 2 2.125 5.125L468 470c-2.769 1.384-5.004 1.12-8.102 1.114l-3.882-.001-4.211-.015-4.296-.005q-5.658-.006-11.314-.024c-3.848-.011-7.695-.015-11.543-.02Q413.327 471.032 402 471c-1.125-5.625-1.125-5.625 0-9"/><path fill="#000426" d="M345 317h2c1.161 3.484 1.118 6.574 1.082 10.194l-.009 2.235q-.021 3.718-.051 7.435l-.029 5.321q-.042 7.233-.094 14.466-.049 7.555-.092 15.111-.085 14.312-.18 28.623a50600 50600 0 0 0-.203 32.582Q347.221 466.484 347 500c3.03 1.515 6.299 1.648 9.625 2.062l2.141.276q2.616.335 5.234.662v1h-20q-.035-30.371-.052-60.742-.007-14.107-.023-28.214-.016-12.317-.019-24.633 0-6.503-.012-13.004c-.033-20.162.186-40.263 1.106-60.407"/><path fill="#e08054" d="M653 337v168l-23 1-3 1c-2.573.07-5.116.094-7.688.062l-2.126-.013c-4.985-.034-6.055-.88-9.678-4.346C606 501 606 501 605.004 498.969c-1.128-2.213-2.243-3.203-4.192-4.719-3.475-2.853-6.335-6.001-9.238-9.426-1.647-1.962-1.647-1.962-3.949-4.136C586 479 586 479 585 476l-1.859-.742c-2.567-1.509-3.18-2.701-4.391-5.383l-1.016-2.195L577 466h4l.75 2.375c1.404 2.948 2.257 3.527 5.25 4.625v2h4l.734 1.863c1.878 4.528 3.111 7.367 7.266 10.137 1.25 2.688 1.25 2.688 2 5h3c4.429 5.143 4.429 5.143 5 9 5.487 1.877 5.487 1.877 11 1 6.362-1.26 12.486-.911 18.938-.562l3.228.158q3.918.193 7.834.404v-2l-3-1h2l1-61h1v65l1 1-1-165-8 7-2-1a543 543 0 0 1 4.312-4l2.426-2.25C650 337 650 337 653 337"/><path fill="#000336" d="M431 681h2c1.603 3.506 2.47 6.144 2 10-1.923 4.758-4.648 8.195-8 12l4 1h-2v3l3 1 1 3 3 1v2h-4v-2h-6v2h-21c0-4 0-4 1-6l-3 1v-2l3-2-1-3-4 1v-2h-7l1-2 2.367-.044c3.566-.075 7.131-.172 10.695-.268l3.725-.069c9.838-.015 9.838-.015 18.213-4.619.235-2.183.414-4.372.562-6.562l.254-3.629zm-27 23 1 2-2-1z"/><path fill="#d3551a" d="M789 617h67c-3.506 2.338-4.889 2.244-9.032 2.227h-3.761l-4.062-.032-4.158-.008c-3.645-.008-7.289-.028-10.934-.05-3.72-.02-7.44-.029-11.16-.039Q801.946 619.064 791 619l.018 3.224c.056 15.787-.215 31.569-.482 47.354l-.181 11.004Q790.181 691.291 790 702h2v2h-2l1 10h69l1-16h-52v-1h53v18l-1 1h-72z"/><path fill="#1e213b" d="m415.92 259.66 3.55-.001c3.853.002 7.705.025 11.557.049q4.018.008 8.037.012 9.477.017 18.954.065c7.197.033 14.394.05 21.592.065 14.795.031 29.591.084 44.386.151v3c-2.945.981-4.776 1.111-7.84 1.082l-3.022-.021-3.31-.04-3.489-.029q-5.723-.051-11.444-.114l-7.924-.071q-9.372-.085-18.742-.181c-7.112-.072-14.225-.137-21.337-.203q-21.946-.203-43.892-.423v3l-7-1v-2c6.788-3.084 12.526-3.414 19.924-3.341"/><path fill="#00033b" d="m402.81 618.875 2.389.027c1.933.024 3.866.06 5.799.098l-1 3 5-2v3l-2 1-2-1-1 3h-3c1.634 1.708 2.869 2.935 5 4v2l-3.438.437c-3.37.175-3.37.175-4.562 1.563l-3.188.25c-4.725.929-6.643 2.128-9.812 5.75-.767 3.01-.987 5.9-1 9l-2-2q.174-2.126.374-4.25l.211-2.391c.43-2.445 1.201-4.207 2.415-6.359l-2-1v-3l-3-3v-4h3v-2c4.628-2.356 8.755-2.235 13.812-2.125"/><path fill="#070013" d="M434 355h90l.062 27.188.028 8.563.008 6.729.015 3.522.001 3.382.006 2.927c-.119 2.661-.525 5.096-1.12 7.689h-3c-.125-7.513-.125-7.513.492-9.914 1.755-7.208.603-15.034-1.152-22.125C519 381 519 381 520 379c.234-1.828.413-3.663.562-5.5l.254-2.969c.235-4.504.184-9.02.184-13.531h-88z"/><path fill="#01021e" d="m375 687 4 1 1 2-5-1v5h3v2h-2l.5 2.875C377 702 377 702 377 704h-2v2h-4v2h9v3l2.59.184 3.348.254 3.339.246C392 712 392 712 393 713c2.446.16 4.867.259 7.316.316l2.216.063q3.515.098 7.03.183l4.756.131q5.841.161 11.682.307v-2h6v3c-9.136 2.858-17.489 3.373-27 3l-2.328-.063a602 602 0 0 1-7.234-.249l-2.272-.068c-4.745-.237-7.975-1.2-12.166-3.62a203 203 0 0 0-5-2v-2l-2.625-.25c-3.852-.856-6.223-2.424-9.375-4.75l4-8h2v-3h2l.375-1.812C373 690 373 690 375 687"/><path fill="#dd885b" d="M472 616h20v1h-19v98l18-1 1-61h5l-1 4v-2h-3v61l-1 1h-21q-.035-19.532-.052-39.063-.007-9.068-.023-18.137-.016-8.744-.02-17.487-.003-3.343-.011-6.688-.01-4.665-.008-9.332l-.01-2.822c.01-6.357.01-6.357 1.124-7.471"/><path fill="#00012e" d="M414 495c6.701-.487 11.066.923 17 4v2l5 2c-1.875 3.875-1.875 3.875-3 5l2 2-1.938.875c-2.214.953-2.214.953-3.062 3.125h2v2h-8v-2h-5l-2-2h-6v-2l6-1-11-5v-2h8l2 2 1-2-2-1 3-3-4-1z"/><path fill="#000029" d="M274 671h1v41h69v-14h2v17h-73l-.062-21.438-.028-6.775-.008-5.283-.015-2.798-.001-2.645-.006-2.308C273 672 273 672 274 671"/><path fill="#0f1139" d="m425 620 10 1-1 2 2 1-2 4h-2l1 2 2.812.875C439 632 439 632 442 634l-1-4h5l-1-2h-3l-3-6h7l4 4-1 5h-2l-.867 1.734L441 643c-4.173-.522-7.325-2.096-10.996-4.012-2.588-1.276-5.244-2.16-8.004-2.988v-2l6-2-2-4-3 2-4-1 3-1z"/><path fill="#997367" d="M524 355c3.628 3.628 6.794 7.062 10 11-5.75-1.875-5.75-1.875-8-3l1 46 3 1c3 3.444 3 3.444 3 6h2l-1 4-1.461-1.496-1.914-1.942-1.898-1.933c-1.644-1.708-1.644-1.708-3.727-2.629v124h-1z"/><path fill="#000024" d="M522 427h1v109l-5 3 .438-3.938c1.287-13.066 1.705-26.091 1.637-39.213q-.018-3.809-.024-7.618c-.011-5.369-.031-10.737-.051-16.106q-.037-9.416-.056-18.832-.01-3.749-.032-7.497l-.01-4.565-.015-2.097c-.001-3.003.154-5.257 1.113-8.134q.515-1.996 1-4"/><path fill="#d64c0b" d="m541 538 4 1h-3v2h-3v2l-1.793.48c-4.042 1.194-6.675 1.988-9.707 5.02-2.599 2.599-3.713 3.035-7.125 4-3.753 1.06-3.753 1.06-6.25 4.125L513 559l-3 1v3h7v-2c3.913-1.754 7.574-2.526 11.812-3.125l3.52-.508L535 557c-2.265 4.529-9.196 6.149-13.75 7.688-2.729.878-5.463 1.64-8.25 2.312v2c-9.41 4.408-9.41 4.408-14 5l2-1v-8l-3-1 1.688-.75c2.446-1.22 2.446-1.22 4.75-3.312 2.651-2.005 4.305-2.566 7.562-2.938v-3c3-2 3-2 6-2v-2l6-1v-3l2.375-.875c2.722-.974 2.722-.974 4.625-3.125a70 70 0 0 1 4.562-1.562c2.981-.77 2.981-.77 5.438-2.438"/><path fill="#535c73" d="M346 305h2v14l-1-2h-2l.003 1.975c.031 20.324-.071 40.647-.205 60.971l-.084 13.144-.159 24.742q-.093 14.116-.182 28.232-.185 28.968-.373 57.936h16l1 1c2.692.237 5.365.422 8.062.562l2.299.131q2.82.159 5.639.307v1h-18v-2h-16q-.106-35.35-.155-70.7c-.016-10.944-.037-21.888-.071-32.831q-.046-14.319-.056-28.636c-.004-5.049-.013-10.097-.035-15.145q-.03-7.146-.022-14.294a822 822 0 0 0-.019-5.208c-.072-11.39 1.01-22.035 3.358-33.186"/><path fill="#000021" d="M272 617h74v14h-2v-12l-4.64.508c-6.726.608-13.376.521-20.122.371l-3.854-.072q-5.013-.095-10.026-.202-5.139-.105-10.278-.201c-6.693-.127-13.387-.266-20.08-.404v47l-2 2zm216-222h3v127l-2 1z"/><path fill="#071031" d="M404 294q22.583-.106 45.166-.155c6.991-.016 13.981-.037 20.972-.071a5456 5456 0 0 1 20.229-.059q3.864-.008 7.727-.032c3.602-.022 7.202-.025 10.803-.024l3.244-.032 2.974.012 2.581-.008C520 294 520 294 524 297l-123 1v-2h3z"/><path fill="#000026" d="m430 355 4 1v33c7.168-.445 7.168-.445 10-2 2.568-.069 5.12.003 7.688.062 2.34.1 2.34.1 4.312-1.062l1 2 2.375-.562c4.664-.563 8.985-.034 13.625.562l1-2v2h8v2c-2.462 1.231-4.065 1.12-6.817 1.114l-3.033-.001-3.283-.015-3.354-.005q-5.319-.01-10.638-.031l-7.199-.013c-5.892-.01-11.784-.03-17.676-.049z"/><path fill="#040a3e" d="M427 531c5.537-.426 9.897 1.095 15 3-3.464 3.871-6.011 5.62-11 7a87 87 0 0 0-4 2l2 1v2l5 1v1q-3.469-.21-6.938-.438l-3.902-.246C420 547 420 547 419 546c-1.662-.208-3.33-.367-5-.5-4.889-.389-4.889-.389-6-1.5a156 156 0 0 0-6-.5c-5.889-.389-5.889-.389-7-1.5a67 67 0 0 0-4.254-.316l-2.588-.127-2.72-.119A1930 1930 0 0 0 376 541v-1c4.062-.197 8.125-.381 12.188-.562l3.486-.17 3.369-.147 3.094-.143c2.766.021 5.179.382 7.863 1.022v2l2.75-1c3.25-1 3.25-1 7.25-1v2c7.136-.283 7.136-.283 13-4h-6l2-4 4-1z"/><path fill="#000028" d="M410.17 442.89h2.608l2.819.016 2.884.004q4.57.01 9.14.031l6.187.014c15.172.033 15.172.033 17.188 2.049 2.558.465 5.047.834 7.625 1.125l2.14.261q2.616.316 5.235.614v1q-11.461.07-22.923.103-5.322.015-10.643.047c-4.079.026-8.157.036-12.235.045l-3.864.031-3.579.001-3.156.013c-2.6-.24-2.6-.24-5.6-2.24v-2c2.308-1.155 3.608-1.122 6.174-1.114"/><path fill="#4b5570" d="M402 418h64v2l-1.985.031q-10.22.163-20.439.341-3.816.065-7.63.125-5.481.088-10.962.187l-3.45.05-3.215.061-2.826.047c-2.297.146-4.29.514-6.493 1.158l1 2h-8v2h64v1h-65c-1-1-1-1-1.125-3.875C400 420 400 420 402 418"/><path fill="#00012c" d="m377 349 3 1c.254 28.338-.443 56.669-1 85h-2c-1.351-2.703-1.12-4.801-1.114-7.827l.001-3.7.015-4.012.005-4.094q.006-5.391.024-10.782c.011-3.666.015-7.333.02-10.999q.017-10.793.049-21.586h2z"/><path fill="#e24300" d="m535 546 1 2h-2l2 6h-3v2l2.75-1.062c3.128-.903 4.302-1.072 7.25.062-4.486 2.768-9.691 3.066-14.801 3.855-5.36.812-5.36.812-10.199 3.145l-1 2h-7l-1-4 1.812-.688c2.389-1.162 2.389-1.162 3.376-3.75 2.411-3.408 4.691-3.761 8.601-4.874 2.684-.835 4.822-2.228 7.211-3.688 2.812-.688 2.812-.688 5-1"/><path fill="#4a5276" d="M402 462h64v1h-63v2h61v1l-1.8.031q-9.32.164-18.641.341-3.473.065-6.945.125-5.009.088-10.016.187l-3.108.05c-5.259.107-10.344.395-15.538 1.254-2.439.015-3.871-.771-5.952-1.988l1 4h63v1h-64c-1-6-1-6 0-9"/><path fill="#d53b00" d="m723 636 2 1a167 167 0 0 1 1.133 19.805l.003 2.686q0 2.78-.006 5.561-.005 4.256.007 8.51l-.004 5.43.006 2.56-.01 2.389-.002 2.089c-.135 2.093-.605 3.942-1.127 5.97a145 145 0 0 0-.062 6.25l.027 3.266L725 704l2 1v4l-2 1v2l2.312-.562C730 711 730 711 733 712v2l-10 1z"/><path fill="#000021" d="M294 659h44v15h-42v-2l39-1-1-4 1-6h-39z"/><path fill="#dc4d00" d="M561 619h1v96h-19c-4.283-4.283-6.259-6.265-9-11a89 89 0 0 0-4-4l1-2 4 1v3l4 2v2h2l3 3 1-2h2l-2 6h9l2-2v2l2-1 1-3h2z"/><path fill="#be4703" d="M652 338v166h-23v-1h22V342l-5 3-2-1a984 984 0 0 1 3.438-3l1.933-1.688C651 338 651 338 652 338"/><path fill="#e1895d" d="M618 364h1v95l-5-2 1-2 2 1-.007-3.448q-.03-16.047-.045-32.095-.007-8.251-.023-16.502-.016-7.956-.02-15.912-.003-3.042-.011-6.084-.01-4.246-.008-8.492l-.01-2.568c.01-5.785.01-5.785 1.124-6.899"/><path fill="#e23e00" d="m662 679 1 4-5 6h-2l-.125 2.188c-1.259 4.045-3.511 5.307-6.875 7.812v4l2 1-2 5-5 1 1-4h-2v-2h-5l2-1v-2l-1.828.035-2.422.027-2.391.036c-2.266-.094-4.188-.466-6.359-1.098v2h-3l1-3 2.09-.113c6.406-.448 11.957-1.478 17.91-3.887l3.125-1.25c4.285-2.608 8.598-6.195 10.875-10.75h2z"/><path fill="#1e224a" d="M459 511c5.31 1.46 9.463 3.983 14 7v1h-6l-3 4h-2l-1 3-9-4 2-1v-4l3-1zm-11 12c2.107.424 4.211.865 6.312 1.312l3.551.739c3.099.937 4.131 1.542 6.137 3.949 2.333 1.417 2.333 1.417 5 2 2.767-.772 2.767-.772 5-2l2 4-1 3-3.5-1.812c-3.364-1.686-6.733-3.058-10.27-4.329-4.502-1.734-8.856-3.825-13.23-5.859z"/><path fill="#000227" d="M431 681h2c1.603 3.506 2.47 6.144 2 10-1.923 4.758-4.648 8.195-8 12l4 1c-3.118 1.603-4.39 2.19-7.812 1.125L421 704l3-2h-7l-1 1q-3.499.508-7 1l-2 1-2-1v-2l-4 1v-2h-7l1-2 2.367-.044c3.566-.075 7.131-.172 10.695-.268l3.725-.069c9.838-.015 9.838-.015 18.213-4.619.235-2.183.414-4.372.562-6.562l.254-3.629zm-27 23 1 2-2-1z"/><path fill="#000032" d="M199 621h5v2l-2 1-2 3a85 85 0 0 0 7-2v5h7v3l-2 1 1 2h-8l-1-1a102 102 0 0 0-5.062-.562l-2.786-.254L194 634v-3l-2-1-2 2c-.597-2.763-1-5.16-1-8h3a93 93 0 0 0 4-1v3h3v-2l-2-1z"/><path fill="#050c33" d="m486 555 6 3v2l1.688.812c2.509 1.289 4.905 2.717 7.312 4.188v8c-6.488-.837-12.308-4.117-18.062-7.062-3.879-1.975-7.841-3.475-11.938-4.938 4.158-1.315 6.888-.344 11 1l1-2v2l3-2z"/><path fill="#00011e" d="M345 525c2.025 1.933 3.421 3.632 5 6l2-1-2 5h19l2-4 2 2h6v3h2v2h16l1 2q-5.406.042-10.812.062l-3.104.026-2.979.01-2.745.016C376 540 376 540 373 539c-1.991-.15-3.985-.248-5.98-.316l-3.526-.127-3.682-.119-3.716-.131A3070 3070 0 0 0 347 538c-1.676-3.143-2.23-5.168-2.125-8.75l.055-2.422z"/><path fill="#00012f" d="M375 689c3.76.581 6.53 1.652 9.812 3.562l2.395 1.379L389 695v2l4 1-5 1v-2h-2l-1 4-2 1v2l-5-1 2 1.875c2 2.125 2 2.125 2 4.125l2 1v2l-5-1v-2l-8-1v-2h4v-2h2l-.5-2.875C376 698 376 698 376 696h2v-2h-3z"/><path fill="#090e3f" d="m375 687 4 1 1 2-5-1v5h3v2h-2l.5 2.875C377 702 377 702 377 704h-2v2h-4v2h9v3l3 3-7-2v-2l-2.625-.25c-3.852-.856-6.223-2.424-9.375-4.75l4-8h2v-3h2l.375-1.812C373 690 373 690 375 687"/><path fill="#3a3d5d" d="M402 440h64c2 2 2 2 2.125 4.625L468 447c-3.138 1.569-6.266.561-9.625.062l-2.141-.302q-2.618-.373-5.234-.76l-2-3h2v-2h-49z"/><path fill="#010525" d="M391 301h2c-.58 3.519-1.807 5.078-4.312 7.562-9.605 10.887-8.487 24.686-8.688 38.438l-4-2v-16h2v-11h-2v-3c3.75-1.125 3.75-1.125 6 0v-4h2l1-3h2v-4h3z"/><path fill="#121645" d="m425 620 10 1-1 2 2 1-2 4h-2c.959 2.331.959 2.331 4 4l-4 2v3l3 3-12-3-1-3 6-2-2-4-3 2-4-1 3-1z"/><path fill="#24274f" d="m189 702 2 1c-.507 4.361-1.363 7.451-4 11l-3 1c2.461 1.231 4.258 1.206 7.008 1.316l2.988.127 3.129.119 3.152.131q3.862.16 7.723.307v1c-3.854.058-7.708.094-11.562.125l-3.292.051c-5.791.035-10.687-.187-16.146-2.176l-1-3-5-1-1-2h-3v-2h5v2l9 1c1.154-2.308 1.534-4.472 2-7l6 1z"/><path fill="#000536" d="M446 507c5.635-.55 8.39 1.05 13 4l-1 5-4 1 1 5 6 3v1c-6.003.632-10.634-1.625-16-4v-6h3l2-6-4-1z"/><path fill="#02052b" d="m439 535 9 1 1 3h-4l-1 4-7 1v2h5v2c-4.921.167-8.503.248-13-2v-2l-3-1c6.375-4.25 6.375-4.25 11-4z"/><path fill="#000223" d="m220.36 660.9 2.4.004q3.774.01 7.549.031l5.135.014c4.184.01 8.368.03 12.553.049v25l-3 3-2-6h2l-.035-3.36-.028-4.39-.025-2.211c-.017-3.597.209-6.524 1.088-10.039l-39 1v-2c4.453-1.113 8.804-1.129 13.363-1.098"/><path fill="#040736" d="m418 616 10 1v2l1.793-.07c4.545-.104 8.066-.067 12.207 2.07l-2 2 2 5 4-1v3l-4 2v2l-9-3-1-3 4-4-3-1 1-1-3.375-.438C427 621 427 621 425 620v3l-3 1 1-5h-5z"/><path fill="#000016" d="m464 420 4 1v5h-66v-2h62z"/><path fill="#02152e" d="M523 410h1v126h-1l-.01-1.785q-.121-21.495-.278-42.99-.076-10.395-.134-20.79-.055-10.027-.136-20.055a2443 2443 0 0 1-.045-7.66c-.017-3.57-.046-7.139-.078-10.709l-.007-3.215-.034-2.949-.016-2.559c-.286-2.497-1.079-4.094-2.262-6.288v-2h3z"/><path fill="#d8602b" d="M577 466h4l.75 2.375c1.404 2.948 2.257 3.527 5.25 4.625v2h4l.734 1.863c1.878 4.528 3.111 7.367 7.266 10.137 1.25 2.688 1.25 2.688 2 5h3c2.569 2.983 4.252 5.133 5 9a89 89 0 0 0 2 4c-4.758-3.506-4.758-3.506-5.965-5.969-1.146-2.25-2.244-3.241-4.223-4.781-3.475-2.853-6.335-6.001-9.238-9.426-1.647-1.962-1.647-1.962-3.949-4.136C586 479 586 479 585 476l-1.859-.742c-2.567-1.509-3.18-2.701-4.391-5.383l-1.016-2.195z"/><path fill="#454d64" d="M346 305h2v14l-1-2h-2l.008 2.074c.062 19.066-.155 38.114-.508 57.176l-.145 8.145q-.173 9.803-.355 19.605h-1q-.106-15.597-.155-31.194c-.016-4.83-.037-9.659-.071-14.489q-.048-7.013-.059-14.025-.008-2.654-.032-5.309c-.104-11.669.882-22.562 3.317-33.983"/><path fill="#00012e" d="M422 658h8v2l2.75.438c2.465.426 4.838.913 7.25 1.562v2l2 1h-2l-1 2-3-2h2v-2l-7 3-2 7-4 2 1 3h-4l-1-5 3 1v-2h2v-2l-6-1v-2l5-4v3l1-3h5v-2l-2.25-.375c-2.551-.58-4.477-1.362-6.75-2.625m-1 12h3v2h-3z"/><path fill="#191e3b" d="M493 539v5h3v2h2v2l8-3 2 1 1-4 3-1 2 1v-3l3 1-2 1v2l-2.312.75c-2.924 1.36-3.988 2.566-5.688 5.25h-2v2c-3 2-3 2-7 2l-1-3-7-3v-2h-2v-2l-5-2v-1c6.625-1 6.625-1 10-1"/><path fill="#060a35" d="m243 690 1 3h-2l-.375 2.188c-1.565 7.044-1.565 7.044-5.125 9.624C234 706 234 706 232 706v2l-5-1 2-1 1-3 2 1-3-5h4l-3-4c4.289-1.887 8.528-3.582 13-5"/><path fill="#010c29" d="m430 355 4 1-1 1v33l5-1c13.623-.634 27.389.418 41 1v1h-49z"/><path fill="#00001e" d="M521 357c2 2 2 2 2.241 4.366l-.014 3.002v3.397l-.032 3.68-.008 3.758q-.016 4.947-.05 9.894c-.02 3.365-.029 6.73-.039 10.094q-.034 9.905-.098 19.809h-3c-.125-7.513-.125-7.513.492-9.914 1.755-7.208.603-15.034-1.152-22.125C519 381 519 381 520 379c.937-7.31 1.147-14.639 1-22"/><path fill="#000237" d="m229 627 6 2c1.078 4.49 1.378 6.33-.938 10.438L232 642l2 1c-3.858 2.153-6.551 3.393-11 3v-2h5v-9h-3v2h-3l2-4c3.75-1.125 3.75-1.125 6 0v-3l-3-1h2z"/><path fill="#474e6f" d="M407 505c3.552.609 6.733 1.457 10 3l1 2h-7v2l8-1v2l5 1v1c-6.58.212-12.625-.267-19-2l-1-1c-2.35-.235-4.706-.414-7.062-.562l-3.911-.254L390 511v-2h-12l-1-2 33 3-3-3z"/><path fill="#010628" d="M522 263h2v31h-4c-1.051-4.142-.964-7.752-.625-12l.273-3.625c.298-2.857.781-5.566 1.352-8.375v-3.25c0-2.75 0-2.75 1-3.75"/><path fill="#000121" d="m391 629 3 1-1 4h2l1-4c3.55-1.163 6.558-.924 10.25-.562l3.266.308L412 630v2l-3.438.438c-3.37.174-3.37.174-4.562 1.562l-3.188.25c-4.724.929-6.643 2.128-9.812 5.75-.766 3.01-.986 5.9-1 9l-2-2c.115-1.418.243-2.834.375-4.25l.211-2.391c.429-2.445 1.2-4.207 2.414-6.359l-2-1h2z"/><path fill="#000018" d="M294 632h52v3l-52-1z"/><path fill="#080f32" d="m218 691 2 4c-3 2-3 2-6 2v2h-5v2h-16v-1l-6-1v-2h23l1-3z"/><path fill="#f3c4ac" d="M650 532h1v8c-2.272 1.136-3.586 1.147-6.111 1.189l-2.569.051-2.781.041-2.855.056q-4.529.087-9.059.163-5.949.102-11.898.219l-2.769.041-2.588.051-2.27.038c-2.138.154-4.031.606-6.1 1.151a85 85 0 0 1-4.75.062l-2.422-.027L593 543v-1h8v-2l49-2z"/><path fill="#dd3500" d="M649 530v3l-1 1 1 4h-32v-2h22v-2c3.694-3.195 5.174-4 10-4"/><path fill="#000032" d="m399 617-1 2-9 2v2h-3c.564 3.27 1.5 4.826 4 7l-3 1v-2l-8-2 2-1v-2l-4 1c7.105-7.359 12.021-8.196 22-8"/><path fill="#d54209" d="M578 415c4.253 3.45 7.384 6.143 10 11 2.772 3.962 2.772 3.962 7 6v2h2l1 3a281 281 0 0 0 5 5l2 3-8-4-1-6h-3v-2l-6-2-1-3c-1.5-1.667-1.5-1.667-3-3l-4 1z"/><path fill="#de4c00" d="M790 704c1.461 2.923 2.341 4.925 3 8 2.769 1.384 5.004 1.12 8.102 1.114l3.882-.001 4.211-.015 4.296-.005q5.658-.006 11.314-.024 5.772-.014 11.543-.02 11.325-.017 22.652-.049l1-6h1v7l-1 1h-69l-1-1z"/><path fill="#000017" d="M344 698h2v17l-63-1v-1h61z"/><path fill="#dd4202" d="M501 656c2 3 2 3 2 6h2v4h2l1-3h4l1 5-2 1v4h4v5l-5-4v-2l-1.805-.746c-2.548-1.456-3.657-2.917-5.32-5.316-1.986-2.984-1.986-2.984-4.875-4.938l-1-4z"/><path fill="#020532" d="M431 681h2c1.603 3.506 2.47 6.144 2 10-1.923 4.758-4.648 8.195-8 12l4 1c-3.118 1.603-4.39 2.19-7.812 1.125L421 704l3-3-2-3 3.438-1.438c3.319-1.198 3.319-1.198 4.562-2.562.235-2.183.414-4.372.562-6.562l.254-3.629z"/><path fill="#d03903" d="m530 698 5 1v3l4 2v2h2l3 3 1-2h2l-2 6 16 1 1-2v3h-19c-4.283-4.283-6.259-6.265-9-11a89 89 0 0 0-4-4z"/><path fill="#020524" d="m186 633 4 1Zm0 1-1 3-5 1v2l-2.188 1.188c-3.039 1.958-5.333 4.192-7.812 6.812l-3-1c10.581-13 10.581-13 19-13m-23 12h2v2l2 1c.931 2.606 1.149 3.642.062 6.25L166 657h-2z"/><path fill="#000027" d="m421.8 419.8 2.534.009c2.66.011 5.319.036 7.978.061l5.424.028q6.631.034 13.263.097l-1 2-3.926-.07a257 257 0 0 0-36.074 2.07l-2-2c4.628-2.344 8.743-2.26 13.801-2.195"/><path fill="#000226" d="m464 463 4 1v6h-36l1-2q6.14-.251 12.28-.482 2.09-.08 4.179-.166 3-.121 6.002-.231l3.65-.143C462 467 462 467 464 468z"/><path fill="#000020" d="m481 526 3 1v2l3 1-3 1-1 2h-2v2l3-2 3 1-2 3h2l1-2-1 5c-7.878-.757-7.878-.757-11-4-.75-2.188-.75-2.188-1-4h2l1-3h2z"/><path fill="#00002a" d="M378 437h1c.741 10.793 1.258 21.223 0 32l-3-1 1-5-1-1c-1.158-5.881-.868-11.117 0-17l-.062-3.375C376 439 376 439 378 437"/><path fill="#e28558" d="m632.94 613.875 3.229.027q3.917.036 7.833.098v2l2.083.113 2.73.2 2.707.175c2.48.512 2.48.512 5.48 3.512h-20l2-3v-1l-17-1v2l-8 1v-2c6.342-2.285 12.246-2.233 18.938-2.125"/><path fill="#00033b" d="M471 522c5.75 1.875 5.75 1.875 8 3l-1-3h2v2l4 2-3 1-1 4-2-1-1 2h-3l-1-2h-3v-2l-3-1z"/><path fill="#00043a" d="M425 501q2.188.212 4.375.438l2.461.246C434 502 434 502 436 503c-1.875 3.875-1.875 3.875-3 5l2 2-1.938.875c-2.214.953-2.214.953-3.062 3.125h-2c-3.429-8.429-3.429-8.429-3-13"/><path fill="#f6ccb7" d="M541 617h1v61l-4-1-3-5 5 2z"/><path fill="#e1a180" d="M592 630v7l-1.812.688c-4.63 2.777-6.653 8.899-8.399 13.824-2.486 10.991-1.028 23.4.211 34.488-4.939-4.939-3.348-16.887-3.396-23.546.124-9.9 2.896-17.664 7.396-26.454h2l.875-1.875C590 632 590 632 592 630"/><path fill="#5b6278" d="M406 540v2l2.781.367c6.526.891 12.874 1.856 19.219 3.633v1h-8l-1-1c-1.662-.208-3.33-.367-5-.5-4.889-.389-4.889-.389-6-1.5a156 156 0 0 0-6-.5c-5.889-.389-5.889-.389-7-1.5a67 67 0 0 0-4.254-.316l-2.588-.127-2.72-.119A1930 1930 0 0 0 376 541v-1c3.499-.199 7-.382 10.5-.562l2.977-.17c5.67-.284 10.915-.169 16.523.732"/><path fill="#da5b24" d="m507 636 4 1 .688 2.125c1.158 2.538 2.134 3.956 3.937 6C518 648 518 648 518 651h2v3h2v3h-5l-4-6 1-4h-2v-2h-2z"/><path fill="#d83900" d="m693 617 70 1v1l-2.523.018q-11.764.087-23.529.218c-4.032.044-8.064.084-12.096.11q-5.836.04-11.671.117-2.227.025-4.456.035c-2.078.009-4.156.037-6.234.07l-3.587.033c-2.926.149-2.926.149-4.81 1.926L693 623z"/><path fill="#e18657" d="m600 524-3.613.586-4.699.789-2.381.383-2.295.39-2.111.35c-2.209.474-2.209.474-4.901 2.502h-4v2l-2.633.148-3.492.227-3.445.211c-3.384.408-6.246 1.224-9.43 2.414l-2-1c5.004-2.296 9.828-3.84 15.188-5.062 5.077-1.083 5.077-1.083 9.863-3.016 2.924-1.383 5.739-1.402 8.949-1.61l3.688-.261c2.803-.043 4.67.208 7.312.949"/><path fill="#d87046" d="m599 352 2 1-9 9h-2l-1 3-5 1v2h-2v2l-8 6-6-1-3-5h4v4h5v-2h2v-2h2v-2l5-1v-2h2v-2h4v-2l1.68-1.461 2.195-1.914 2.18-1.898A91 91 0 0 0 599 352"/><path fill="#00002b" d="M373 654h4l-1 4h3l1 5 3 1v2l5-1-1 5h-2v-2l-3.125-.188c-4.852-1.017-6.446-2.301-9.875-5.812-.875-2.312-.875-2.312-1-4h2v2h2v2h2v-2l-4-3z"/><path fill="#010228" d="M235 629c3.795 1.491 5.61 3.757 8 7l-1 4c-3.508 1.604-6.144 2.22-10 2l.938-2.188c.988-2.615 1.591-5.063 2.062-7.812l-2-2z"/><path fill="#040923" d="M184 714h27l-1 3c-3.937.058-7.875.094-11.812.125l-3.393.051-3.252.019-2.999.032C186 717 186 717 183 715z"/><path fill="#e64700" d="m535 546 1 2h-2l2 6h-3v2l2.75-1.062c3.128-.903 4.302-1.072 7.25.062-3.656 2.34-6.732 2.374-11 2-2.75-1.438-2.75-1.438-5-3l-3-1c1-3 1-3 3.25-4.625 2.647-1.324 4.836-1.959 7.75-2.375"/><path fill="#e39368" d="M613 692c5.75 1.875 5.75 1.875 8 3 3.182.241 6.373.185 9.562.188l2.635.037c5.899.013 11.088-.757 16.803-2.225-2.197 2.197-3.518 2.647-6.438 3.562l-2.371.754L639 698l-3 1c-8.399.895-14.973-.138-22-5z"/><path fill="#00001a" d="M198 666h2v10h26v2h-29zm241-44h7l4 4-1 5h-2l-.812 1.812c-1.173 2.16-2.382 3.546-4.188 5.188-1.125-5.75-1.125-5.75 0-8h4l-1-2h-3z"/><path fill="#d96b3b" d="M611 315c0 3.168-.628 4.256-2 7v3l-3.312 1.312c-2.782 1.183-4.752 2.296-6.688 4.688h-2v3l-6 1 2-3h2l.785-1.812c1.307-2.353 2.556-3.529 4.653-5.188 2.6-2.135 4.704-4.159 6.562-7h2v-2z"/><path fill="#000031" d="m212 701 2.812.5c3.144.577 3.144.577 6.188.5l-1 2.875c-1.102 2.896-1.102 2.896-1 5.125h4l-1 3c-3.473 1.158-6.361 1.069-10 1l1.438-1.312c1.799-1.711 1.799-1.711 2.562-4.688l-5-2 3-3z"/><path fill="#d04000" d="M473 617h20l1 3h2c3.058 3.554 5.601 6.965 8 11 1.582 1.751 1.582 1.751 3 3l-1 2-5-3-1-6-4-1 1-2h-2l-1.125-1.375c-4.277-3.707-9.31-3.861-14.75-3.75l-3.492.055L473 619z"/><path fill="#272d47" d="m486 555 6 3v2l2 1c-3.061 2.624-3.732 3-8 3v2c-3.359-.76-6.521-1.871-9.75-3.062l-2.984-1.098L471 561c4.158-1.315 6.888-.344 11 1l1-2v2l3-2z"/><path fill="#00002b" d="M468 547h3v2c2.789 1.105 2.789 1.105 5 1q2.008.47 4 1v2h-7v3h-2l-1 2v-2h-9v-2h5v-3l2-2z"/><path fill="#03041c" d="m406.73 260.8 3.926.02 4.09.05 4.136.028q5.058.035 10.114.097l-1 2h-25v3l-7-1v-2c3.592-2.247 6.551-2.232 10.734-2.195"/><path fill="#e17b4d" d="m660 651 4 2c1.573 6.689 2.373 11.381 0 18a95 95 0 0 0-.5 4.188c-.422 3.216-.815 5.116-2.5 7.812l-2-1 .986-1.686c1.158-2.643 1.258-4.465 1.244-7.341l-.005-2.901-.037-3.01-.002-2.998c-.028-4.51-.193-8.648-1.186-13.064"/><path fill="#00002d" d="M172 621h2l-1 2.25c-1.228 2.889-1.228 2.889-1 6.75h-4v2l-7-1-1-3 4-1 1-3 4-1v2h2z"/><path fill="#e5a283" d="m595 704 8 4v2l1.871.551 2.567.761 2.496.739c1.691.523 3.379 1.068 5.033 1.7 6.068 2.25 11.654 2.78 18.095 2.937l2.913.103q3.512.122 7.025.209v1q-5.25.042-10.5.062l-2.977.026c-5.61.019-10.975-.249-16.523-1.088l-1-3-1.898-.402-2.477-.536-2.461-.527C603 712 603 712 601 711v-2l-1.875-.812C597 707 597 707 595 704"/><path fill="#1d2244" d="m392 649 3 1v2h5v3l14 1v1l-3.762.184-4.926.254-2.474.119c-4.035.212-7.895.487-11.838 1.443l-2-5h2v2h3v-5h-2z"/><path fill="#dd7949" d="M535 558c-7.078 4.233-13.998 7.058-22 9v2l-5 1 1-2h3v-2l5-3v-2c3.539-1.528 6.897-2.5 10.688-3.188l2.886-.542C533 557 533 557 535 558"/><path fill="#060b2c" d="M416 540v2l2.082-.07 2.73-.055 2.708-.07C426 542 426 542 429 544v2l5 1v1c-3.447.334-5.992-.27-9.188-1.438-4.891-1.745-9.65-2.25-14.812-2.562l-1-3c3-1 3-1 7-1"/><path fill="#e9956a" d="m635.45 517.9 3.262.01 3.418.025 3.441.014q4.216.018 8.434.049v1l-2.336.183-3.039.254-3.024.246c-2.581.166-2.581.166-4.601 1.317-2.033.085-4.068.107-6.102.097l-3.672-.009-3.851-.026-3.875-.014q-4.75-.017-9.5-.048v-1l2.992-.184 3.883-.254 3.867-.246c3.862-.375 6.716-1.435 10.703-1.414"/><path fill="#010221" d="M398 263h-2v4l-3.324.621-4.364.817-2.185.408A738 738 0 0 0 375 271c3.254-3.876 6.794-5.328 11.5-6.812l2.012-.694c3.465-1.131 6.033-1.931 9.488-.494"/><path fill="#00001b" d="M446 671h2v3h2v4h2v17l-3 1 1-15h-2c-1.316-3.62-2-6.096-2-10"/><path fill="#dc3e01" d="M610 337h6l-2 3h-2v2h-2v2h-2v2l-7 5-1-7 9-2z"/><path fill="#da5c21" d="M644 710c3 1 3 1 6 3v3c-5.786 1.254-11.489 1.112-17.375 1.062l-3.098-.013q-3.764-.018-7.527-.049v-1l20-1-1-3z"/><path fill="#060b28" d="m203 616 17 2v3h4v2l-7 1v-2l-4-1v-2h-11z"/><path fill="#df5914" d="m704.32 632.12 3.115.146 3.248.17 3.283.159q4.016.194 8.03.404v2h-27c1.918-3.837 5.555-3.066 9.324-2.879"/><path fill="#233050" d="m384 714 2.863.465c4.759.678 9.526.887 14.325 1.097l2.799.129c6.676.291 13.33.434 20.013.309-5.624 3.505-12.626 2.188-19 2l-2.411-.059a545 545 0 0 1-7.339-.253l-2.346-.068c-5.444-.268-5.444-.268-7.92-2.163z"/><path fill="#060a2c" d="M197 661h15v1l-11 1v13h-1v-10h-2v10h-1z"/><path fill="#cd571f" d="m561 448 5 1c3 4.75 3 4.75 3 7l4 1v4h2v3c-3.42-1.14-4.289-2.222-6.562-4.938-1.769-2.095-3.498-4.122-5.438-6.062v-3h-2z"/><path fill="#e6a888" d="m680 644 3 2 .438 3.438c.174 3.37.174 3.37 1.562 4.562.087 1.927.107 3.857.098 5.785l-.01 3.545-.026 3.732-.013 3.745q-.018 4.596-.049 9.193h-2v-22l-2 1 .035-2.012c.084-6.551.084-6.551-1.035-12.988"/><path fill="#d14a0f" d="M582 650h1c.115 8.07-.1 15.977-1 24h-2q-.08-4.594-.125-9.188l-.051-2.619c-.034-4.515.02-8.094 2.176-12.193"/><path fill="#050834" d="M384 269v2l-1.539.918c-4.487 2.731-8.508 5.623-12.461 9.082l-3-1 2-1a816 816 0 0 0 3-5c3.291-4.039 6.887-5 12-5"/><path fill="#d34a0c" d="M581 675c1.884 3.265 2.493 6.281 3 10h3v2l4 1-2 8-2-1v-5h-2l-1-4h-2c-1.176-3.674-1.074-7.169-1-11"/><path fill="#d54d06" d="M858 617h2v17h-15v-2h11c2.351-3.527 2.214-5.029 2.125-9.188l-.055-3.292z"/><path fill="#4f5d76" d="M343 525c1.576 2.886 2.463 5.533 3.125 8.75l.508 2.422L347 538l2.339-.032c3.491-.041 6.982-.067 10.473-.093l3.682-.051 3.526-.019 3.253-.032C373 538 373 538 376 540l-30-1c-2.19-3.285-2.353-4.831-2.625-8.688l-.227-3.011z"/><path fill="#da7743" d="m593 485 5 1 3 6h3c2.569 2.983 4.252 5.133 5 9a89 89 0 0 0 2 4c-4.761-3.508-4.761-3.508-5.953-5.961-1.184-2.306-2.384-3.338-4.422-4.914-3.34-2.733-5.424-5.428-7.625-9.125"/><path fill="#1c2b4d" d="M346 305h2v14l-1-2h-2v28h-1q-.075-6.134-.11-12.268-.014-2.08-.041-4.16c-.099-8.062.078-15.729 2.151-23.572"/><path fill="#cd3600" d="M850 658h2v17l-12-1 1-2h9z"/><path fill="#04062b" d="M414 495c6.701-.487 11.066.923 17 4l-1 2-5.859-.781c-2.446-.287-2.446-.287-6.141-.219v-2l-4-1z"/><path fill="#d2450b" d="M561 396c4.968 3.785 8.399 7.926 12 13q1.495 2.005 3 4c-4.402-1.201-7.134-2.391-10-6-.75-2.25-.75-2.25-1-4l-3-1z"/><path fill="#e43a00" d="M854 625c2.767.007 4.994 2.233 5 4a5 5 0 0 1-5 5.001c-2.214-.006-3.995-1.787-4-5.001a4 4 0 0 1 4-4"/><path fill="#db3b02" d="M669 629c5.012 3.844 8.169 7.337 11 13l-1 2-1-3-4-1-1-3-3 2 .062-2.188c-.06-2.731-.455-5.155-1.062-7.812"/><path fill="#00001f" d="m418 616 10 1v2h7v2c-5.415 1.231-5.415 1.231-8.375.062L425 620v3l-3 1 1-5h-5z"/><path fill="#000223" d="M484 555h2l1 5c-3.655 2.339-6.735 2.299-11 2-2.938-1-2.938-1-5-2l1-2h11z"/><path fill="#555e76" d="m387 694 7 1v2l28 1v1c-4.561.255-9.124.475-13.688.688l-3.919.22-3.78.166-3.475.175c-3.504-.278-5.309-1.222-8.138-3.249v-2z"/><path fill="#00001e" d="m159 689 2 2-1.5 1.625c-1.875 2.969-1.735 4.928-1.5 8.375-3.653-1.25-4.781-1.671-7-5v-4l3-1v3z"/><path fill="#00012b" d="M355 292h2v2h2v2l3 1a863 863 0 0 1-4.375 2l-2.461 1.125C353 301 353 301 351 301v-3h2v-3h2zm7 1 3 1v2h-3z"/><path fill="#d84b00" d="M561 681h1q.037 6.567.055 13.135.008 2.235.02 4.469.018 3.21.023 6.419l.016 3.904C562 712 562 712 561 714h-7l2-3v2l2-1 1-3h2z"/><path fill="#db2f01" d="M632 353c2.962.613 4.381 1.254 7 3l-2 4c-3.623 1.208-4.641.543-8-1z"/><path fill="#00002a" d="M152 641a5.001 5.001 0 0 1 0 10.001A5.001 5.001 0 0 1 152 641"/><path fill="#00053f" d="M207 625v5h7v3c-3.041.977-4.996 1.163-8 0-1.75-1.562-1.75-1.562-3-3h-4v-2c6.875-3 6.875-3 8-3"/><path fill="#ce2400" d="M614 521h23v2l-22 1-2-2z"/><path fill="#2c3255" d="m360 283 1 3-4 5 4-2 1 7h-3v-2h-2v-2h-2v3h-2v3l-2-1 1-3h2l.34-1.766c.72-2.437 1.704-3.959 3.222-5.984l1.379-1.859z"/><path fill="#d13806" d="M515 678h3v2h2l1.375 2.438c1.372 2.651 1.372 2.651 3.625 3.562v2h2v4c-3.33-1.426-5.317-3.15-7.688-5.875l-1.824-2.055c-1.496-2.081-2.067-3.566-2.488-6.07"/><path fill="#01032a" d="m229 635 3 1-1 3 2 1-1 2 2 1c-3.858 2.153-6.551 3.393-11 3v-2h5l-.062-3.938A59 59 0 0 1 228 636z"/><path fill="#000023" d="m243 690 1 3h-2l-.312 2.25c-.731 2.92-1.756 4.482-3.688 6.75h-2v-3h2l-2-6z"/><path fill="#d3490a" d="M636 629h2l1 2c2.017 1.134 2.017 1.134 4 2l-1 2 2 1-17-2v-2h9z"/><path fill="#d53b00" d="M543 617h19l-1 4h-3v-2h-2v3h-3v-2h-4v-2h-6z"/><path fill="#e03a00" d="M832 699h20l1 5h-3l-1-2-16-1z"/><path fill="#000126" d="m389 669 11 1v2l10 1v1c-7.363.224-13.87-.099-21-2z"/><path fill="#dd4d07" d="M595 435c2 3 2 3 2 6l2.188.812c2.788 1.178 5.253 2.579 7.812 4.188l-1 2-1.539-.875c-4.339-2.34-7.4-3.631-12.461-3.125v-3l2-1z"/><path fill="#040b36" d="M403 419h8l2 2-4 1 1 2h-8l-1 2c-.125-2.375-.125-2.375 0-5z"/><path fill="#444b67" d="M192 634h12l1 1c5.083.113 5.083.113 10-1v2h2v4l-2.5-.938c-3.891-1.181-7.462-1.644-11.5-2.062v-2h-11z"/><path fill="#353c53" d="m163 624 2 1c-1 2-1 2-4 4v2h-2v2h-2v2l-6 2c2.089-3.86 4.358-6.466 7.688-9.312l2.449-2.114z"/><path fill="#e33700" d="M650 342v10c-3-1-3-1-5-3h-3v-2h2v-2c3.75-3 3.75-3 6-3"/><path fill="#d54108" d="M596 351h5l-10 10h-2l-1 2-1-3h2l1-4 1.875-.812c2.425-1.144 2.425-1.144 4.125-4.188"/><path fill="#de7244" d="M501 656c2 3 2 3 2 6h2l.875 2.75c.89 2.572 1.84 4.863 3.125 7.25-3.675-2.682-5.737-5.091-8-9l-3-2c-.688-2.125-.688-2.125-1-4z"/><path fill="#131637" d="m157 635 1 3-2 1-1 3-6-1-1 4-1-2c2.33-5.64 2.33-5.64 5.562-7.375C155 635 155 635 157 635"/><path fill="#d57044" d="M610 619v2l-8 3v3l-5 3-4-1 3-3h2v-2q2.434-1.256 4.875-2.5l2.742-1.406C608 619 608 619 610 619"/><path fill="#000a3d" d="M478 522h2v2l4 2-3 1-1 4-2-1-1 2h-2l.062-2.375c.125-2.606.125-2.606-1.062-4.625h5z"/><path fill="#050626" d="M522 525h1v11l-5 3c.088-1.584.196-3.168.312-4.75l.176-2.672c.576-2.901 1.588-4.37 3.512-6.578"/><path fill="#cc662e" d="M525 356c3.311 3.311 6.177 6.34 9 10-5.75-1.875-5.75-1.875-8-3v10h-1z"/><path fill="#00001a" d="M381 624v2h-2v3h-2l-1 5h-2v3l-3 1v-5h2v-3l3-2 1-3c2-1 2-1 4-1"/><path fill="#d14a11" d="M622 615h8l-1 3-3.312.438c-3.619.445-3.619.445-6.688 1.562-2.262-.121-2.262-.121-4.688-.438l-2.449-.308L610 619v-1l12-1z"/><path fill="#00001f" d="M374 502v2h7v2h-14l-1-3c2.892-.826 4.887-1 8-1"/><path fill="#000024" d="M378 471h2c.083 4.833-.047 9.237-1 14l-4 1 .469-1.711c.712-3.07.958-6.132 1.25-9.266C377 473 377 473 378 471"/><path fill="#748094" d="M424 679h6c1 1 1 1 1.098 4.16l-.036 3.902-.027 3.911C431 694 431 694 429.699 695.457c-2.37 2.153-4.582 2.197-7.699 2.543 1.393-2.786 3.16-2.935 6-4l1-1v-9z"/><path fill="#070b28" d="M431 681h2c1.604 3.508 2.22 6.144 2 10l-4 4z"/><path fill="#da7644" d="M524 657c3.276 2.184 4.032 3.67 6 7 1.61 2.055 3.297 4.02 5 6l-1 2-3-1-1-2h-3l-.402-1.863-.536-2.449-.527-2.426c-.534-2.407-.534-2.407-1.535-5.262"/><path fill="#ca8768" d="m507 558 2 1-2.375 1.5c-3.525 3.357-3.758 5.773-4.625 10.5l5-1-4 4-4-1h2v-8l-3-1 1.688-.75c2.712-1.466 4.948-3.28 7.312-5.25"/><path fill="#1f2642" d="M495 567h3l-1 5a589 589 0 0 1-4.938-1.875l-2.777-1.055C487 568 487 568 486 566c3.664-1.357 5.506-.523 9 1"/><path fill="#ecaf91" d="M570 547c-6.566 3.788-12.545 4.961-20 6-1.669.321-3.337.65-5 1l1-2c3.328-1.018 6.663-2.013 10-3l3.008-.902 2.93-.848 2.714-.797C567 546 567 546 570 547"/><path fill="#010530" d="M345 525c3 3 3 3 5 6l2-1-2 5h-4l-1-1z"/><path fill="#e08a63" d="m630 297 1 2c-2 3-2 3-4.293 4.363-3.167 1.915-5.44 4.176-8.019 6.825l-2.676 2.73L614 315l-2-1 14-14h2v-2z"/><path fill="#d76939" d="m640 297 4 1 1 3 2 1v8l-3-1-.312-2.312c-.732-2.859-1.458-3.845-3.688-5.688z"/><path fill="#d45417" d="m664 703 4 2c-3.75 3-3.75 3-6 3v2h-4v2c-2.647 1.461-3.894 2-7 2v-2l6-1 1-4 6-1z"/><path fill="#00011e" d="m438 543-1 3h5v2c-4.921.167-8.503.248-13-2v-2c3.073-.911 5.801-1.089 9-1"/><path fill="#d44608" d="M624 325h3c-.512 4.056-2.466 5.658-5.5 8.25l-2.469 2.141C617 337 617 337 616 337v-5h3l1-3h4z"/><path fill="#00021e" d="M180 695c4.75.875 4.75.875 7 2v2h10c-4.353 2.176-6.227 2.485-11 2-2.534-1.134-4.662-2.473-7-4z"/><path fill="#de5508" d="M657 620c3.039 1.41 5.594 3.089 8.25 5.125l2.141 1.633L669 628l-1 2h-6l-.25-1.625c-1.014-3.21-2.822-5.638-4.75-8.375"/><path fill="#de9b77" d="m541 538 4 1h-3v2h-3v2l-15 5v-2l2.375-.875c2.722-.974 2.722-.974 4.625-3.125a70 70 0 0 1 4.562-1.562c2.981-.77 2.981-.77 5.438-2.438"/><path fill="#798196" d="M389 672c5.166-.33 8.805.5 13.645 2.266 3.751 1.169 7.446 1.424 11.355 1.734v1c-8.884.299-16.814-.303-25-4z"/><path fill="#000026" d="M432 663h6l1 3 3-1v3h-2l-1 3h-2v-3l-4 1-1-2h2v-3z"/><path fill="#cd7540" d="M528 547c-1 3-1 3-3.688 4.562A91 91 0 0 1 515 555l-3 1v-2c3-2 3-2 6-2v-2c6.625-3 6.625-3 10-3"/><path fill="#010324" d="m451 545 1 3 3 1-1 3h-6v-2h-4v-2l2.938-.938c2.903-.757 2.903-.757 4.062-2.062"/><path fill="#e08956" d="M579 542h14v1q-3.561.76-7.125 1.5l-2.016.434c-4.02.827-7.758 1.219-11.859 1.066l2-2h5z"/><path fill="#d84d0b" d="m567 542 12 1v1l-17 4v-2h4z"/><path fill="#de936a" d="m551 330 1 2h-8l-.75 1.875c-1.487 2.529-2.687 2.843-5.25 4.125-1.268 2.034-1.268 2.034-2 4 0-5.014 0-5.014 3.375-8.438l1.898-1.933c3.363-3.172 5.353-2.485 9.727-1.629"/><path fill="#060a2d" d="m384 315-3 9-3-2v-4h-2v-3c3.29-1.097 4.713-.8 8 0"/><path fill="#db3400" d="M855 699h6c.194 5.527-.252 9.756-2 15h-4l1-3h2v-3q.47-3.005 1-6z"/><path fill="#464e64" d="m375 687 4 1 1 2-5-1v6h-4v3h-2v3l-2-1 1-3h2v-3h2l.375-1.812C373 690 373 690 375 687"/><path fill="#d53b02" d="m613 640-9 9-3-1 2-1 1-3h2l1-4c3-1 3-1 6 0"/><path fill="#d26433" d="M495 620c3.604 3.404 6.298 6.857 9 11 1.624 1.794 1.624 1.794 3 3l-1 2-5-3-1-6-4-1 1-2h-2z"/><path fill="#1b1e39" d="M448 626h2l-1 5h-2l-.812 1.812c-1.173 2.16-2.382 3.546-4.188 5.188-1.125-5.75-1.125-5.75 0-8h6z"/><path fill="#000840" d="m438 627 3 1h-2v2h2l1 4-1.812-.938c-2.278-1.164-2.278-1.164-5.188-2.062v-2zm7 0 1 3-4 1-1-3z"/><path fill="#e47343" d="M639 346h2v5h-2l-2 4-5-2z"/><path fill="#d75611" d="m537 342 3.312 1c3.534 1.131 3.534 1.131 6.688 1v8l-1.426-1.242-1.886-1.633-1.864-1.617c-1.959-1.672-1.959-1.672-4.824-3.508z"/><path fill="#32384f" d="m162 705 5 1v4l4-1v3l5 1-4 1-10-6z"/><path fill="#252c4a" d="m218 691 2 4c-3.644 2.429-5.712 2.162-10 2l1-3z"/><path fill="#cf4003" d="m662 679 1 4-5 6h-2v3l-6 2 1.207-1.391c2.704-3.132 5.373-6.248 7.793-9.609h2z"/><path fill="#cf5d1f" d="m563 531 4 1-14 6-4-2 2.809-.84 3.629-1.098 3.621-1.089c2.8-.682 2.8-.682 3.941-1.973"/><path fill="#002" d="M467 519c4.245-.333 6.355-.439 9.938 2l2.062 2v2l-9-3-1 2v-4z"/><path fill="#060a27" d="M446 507c5.294-.504 7.814.811 12 4l-1 3-3-1v-2l-1.75-.438L446 509z"/><path fill="#df703d" d="m601 325 1 3-3 3h-2v3l-6 1 2-3h2l.75-1.812c1.414-2.474 2.901-3.622 5.25-5.188"/><path fill="#00011b" d="M167 708h5v2l5 1 5 1v2c-4.191.195-7.241-.067-11-2l-1-2h-3z"/><path fill="#ca460d" d="M675 692h2c-1.509 4.98-4.557 8.243-8 12-1.125-3.75-1.125-3.75 0-6h3v-4h3z"/><path fill="#020525" d="m381 691 8 4v2l4 1-5 1v-2h-5c-2-3-2-3-2-6"/><path fill="#000124" d="m415 629 9 2 1 3q-2.187.04-4.375.062l-2.461.036C416 634 416 634 414 633z"/><path fill="#353f5b" d="m392 618-5 1v2h-3l-1 4-2 1v-2l-4 1c9.442-9.779 9.442-9.779 15-7"/><path fill="#00021a" d="M434 516h10l-1 4c-6.625-.75-6.625-.75-10-3z"/><path fill="#5b637a" d="M404 511h15v2l5 1v1c-6.644.214-12.532-.488-19-2z"/><path fill="#d16825" d="m611 503 16 1-1 2q-3.187.04-6.375.062l-3.586.036C613 506 613 506 611 505z"/><path fill="#db4d07" d="M541 711c2.169.506 4 1 6 2 2.371.23 4.747.411 7.125.562l3.883.254L561 714l1-2v3h-19z"/><path fill="#000013" d="m371 695 2 1-1.5 2.75c-1.779 3.259-1.779 3.259-1.5 7.25l-6-1 2-4h3v-3h2z"/><path fill="#000339" d="M418 661h7l2 5h-7v-2l-3-1z"/><path fill="#000a40" d="m229 627 1 2 2 1-2 3 2 1-10-1c0-2 0-2 2-4.125 2-1.875 2-1.875 5-1.875"/><path fill="#ebb08f" d="M600 524q-4.092.757-8.188 1.5l-2.33.434c-3.876.698-7.523 1.256-11.482 1.066 1-2 1-2 4-3a196 196 0 0 1 6.938-.625l3.714-.289c2.843-.073 4.675.16 7.348.914"/><path fill="#424963" d="m372 272 2 1-1.375 1.25c-1.713 1.652-1.713 1.652-2.5 3.75-1.51 2.684-3.444 3.589-6.125 5l-3-1z"/><path fill="#00011d" d="M163 646h2v2l2 1c.931 2.606 1.149 3.642.062 6.25L166 657h-2z"/><path fill="#e07949" d="M652 521h2l-1 11h-3v6l-2-3h-3l4-2 1-4h2z"/><path fill="#010320" d="m342 519 3.812-.062 2.145-.036C350 519 350 519 353 520v2l-2.75-.125c-3.128.12-4.636.516-7.25 2.125z"/><path fill="#d67947" d="M593 432h2v2h2l1 3a281 281 0 0 0 5 5l2 3-8-4-1-6h-3z"/><path fill="#c5490f" d="m538 419 2 1 .812 2.875c.938 3.378.938 3.378 4.188 5.125v2c-4.292-1.651-6.879-4.738-10-8v-2z"/><path fill="#cd3d03" d="M621 307c0 3.589-.664 4.109-3 6.688l-1.688 1.886L615 317h-2l-1 4h-2c.476-4.283 2.948-6.156 6-9l2.812-2.812z"/><path fill="#020428" d="m365 281 1 2c-1.9 3.515-3.566 5.896-7 8h-2l2-4 .875-2.125c1.377-2.295 2.677-2.896 5.125-3.875"/><path fill="#df3b00" d="M522 657h2c3.077 5.415 3.077 5.415 2.688 8.375L526 667v-2h-2v2h-2l.562-2.75c.395-2.933.385-4.514-.562-7.25"/><path fill="#e23d00" d="M646 619h7l3 5-3 2v-2l-1.812-.812c-2.16-1.173-3.546-2.382-5.188-4.188"/><path fill="#000219" d="m399 617-1 2-14 4v-2h3v-2c4.121-1.998 7.452-2.178 12-2"/><path fill="#070a39" d="m402 463 1 2h10v2c-6.4 1.231-6.4 1.231-9.438.062L402 466l1 4-2-1z"/><path fill="#dc784e" d="m630 354 2 1-2 2c-.643 2.069-.643 2.069-1 4-3.311 1.129-6.59 2.213-10 3 3.494-3.596 7.111-6.835 11-10"/><path fill="#dd4000" d="M613 710h3v2l1.812.312c2.47.777 3.511 1.759 5.188 3.688-3.469-.458-6.674-.891-10-2l-1-3z"/><path fill="#51576b" d="m247 686 1 2c-2.168 4.444-4.521 8.725-7 13l-2-1 3-7h2v-6z"/><path fill="#0a0e24" d="M402 441h4v3h-2l3 4h-6q-.063-3 0-6z"/><path fill="#4b536e" d="m388 265-1 4-3.188.438c-2.967.437-5.88.94-8.812 1.562 3.473-4.167 7.516-6 13-6"/><path fill="#e43500" d="M548 705h4v3h-2v2h2l-1 4-6-1 4-2z"/><path fill="#e54c00" d="M771 619h1v10l-4-2v-5z"/><path fill="#000019" d="M495 565h6v8l-4-1v-5z"/><path fill="#798495" d="M435 548a438 438 0 0 1 13 2v2l4 1c-6.455.561-11.154-1.365-17-4z"/><path fill="#131b3f" d="M404 491h5v2h6l-1 3c-6.523-.492-6.523-.492-8.938-3.062z"/><path fill="#00001f" d="M394 490c1.584.088 3.168.196 4.75.312l2.672.176c2.901.576 4.37 1.588 6.578 3.512-3.019 0-5.771-.15-8.75-.5l-2.422-.281L395 493z"/><path fill="#d25319" d="M610 337h6l-2 3h-2v2h-2v2h-2l-1 2-1-4h3z"/><path fill="#00001f" d="M166 681a4 4 0 1 1-.002 8.002A4 4 0 0 1 166 681"/><path fill="#000120" d="M417 659c9.41-.369 9.41-.369 14 2v2c-5.062.49-9.326-1.289-14-3z"/><path fill="#e03600" d="m509 659 3 1-1 3-3 1-1 2h-2v-4h-2v-2l5 1z"/><path fill="#080c34" d="m191 629 4 2c-1 3-1 3-2.812 4.188C190 636 190 636 186 636l1-4h4z"/><path fill="#00002d" d="m407 537 1 3 4 1-6 1v-2l-9-1v-1z"/><path fill="#df6f3c" d="m554 388 3 2v2l4 2-1 2h-2a253 253 0 0 0-6 2l1.562-2.188c1.652-3.232 1.502-4.428.438-7.812"/><path fill="#c54e10" d="M652 338v15h-1v-11l-5 3-2-1a984 984 0 0 1 3.438-3l1.933-1.688C651 338 651 338 652 338"/><path fill="#282f49" d="M372 708h8v3l3 3-7-2v-2l-4-1z"/><path fill="#d64000" d="m610 691 11 6v1h-6v-2h-4z"/><path fill="#00001e" d="M146 676h1c1.591 4.177 2.213 7.532 2 12h-2v-4h-2c-.125-5.75-.125-5.75 1-8"/><path fill="#202538" d="m238 631 5 5-1 4-4 1 .562-2.188c.458-2.94.173-4.953-.562-7.812"/><path fill="#01062c" d="M402 615q2.906-.079 5.812-.125l3.27-.07C414 615 414 615 417 617c-5.562.915-9.676 1.321-15-1z"/><path fill="#333850" d="m514 539 3 1-2 1v2l-2.312.75c-2.924 1.36-3.988 2.566-5.688 5.25l-2-1 5-7 4 1z"/><path fill="#131525" d="m464 463 4 1v6h-4z"/><path fill="#cf561f" d="M551 356h4v2h4v6a781 781 0 0 1-3.438-2.875l-1.933-1.617C552 358 552 358 551 356"/><path fill="#dd5d22" d="m564 345 1.391 1.312L567.25 348l1.828 1.688c2.085 1.688 2.085 1.688 5.922 1.312v2l-9-1v-2l-2-1z"/><path fill="#e37e49" d="m590 335 1 4h-2l-1 3-5 1v2l-2-1z"/><path fill="#cc440a" d="m588 638 3 1v2l-3 1-1 4h-2v2l-2-1c2.75-6.75 2.75-6.75 5-9"/><path fill="#3c445e" d="M227 622c4.419 1.35 6.343 3.261 9 7l-7-2z"/><path fill="#000123" d="m195 616-5 4-7-1-1-2c4.394-.857 8.526-1.089 13-1"/><path fill="#002" d="M485 533a3.001 3.001 0 0 1 0 6 3.001 3.001 0 0 1 0-6"/><path fill="#dd7d49" d="m578 415 7 6v2l-6-1z"/><path fill="#cc420c" d="m533 367 4 1 4 7h-5c-1.075-2.652-2.095-5.284-3-8"/><path fill="#0e1225" d="M426 712h6v3l-7 1-1-2h2z"/><path fill="#d63100" d="M723 711c6.625-.125 6.625-.125 10 1v2l-10 1z"/><path fill="#080d3b" d="m221 704 2 1-1 4 4 2-4 2 1-3h-4l-1-3h2z"/><path fill="#000021" d="M395 699c7.75-.125 7.75-.125 10 1v2l-4 1v-2h-7z"/><path fill="#da3e00" d="M515 674h5l-1 5h2l-1 3v-2h-2v-2h-3z"/><path fill="#3b4152" d="M371 658h2v2h2v2h4l1 5c-2.957-1.373-5.565-2.817-8-5-.75-2.188-.75-2.188-1-4"/><path fill="#000228" d="m144 653 3 1v5l-4 2a197 197 0 0 1 0-7z"/><path fill="#db7f4b" d="M674 634c3.536 3.173 5.586 5.167 6 10l-2-1v-2l-4-1z"/><path fill="#101a3d" d="m381 504 9 3v1h-11l-2-2h4z"/><path fill="#070b30" d="M359 502h11l-4 1 1 3h-6z"/><path fill="#0f132f" d="m431 499 11 3-3 2-9-3z"/><path fill="#d87741" d="M577 466h4l3 9-3-1z"/><path fill="#10122f" d="M465 441a3.001 3.001 0 0 1 0 6 3.001 3.001 0 0 1 0-6"/><path fill="#000019" d="m464 420 4 1v5h-6z"/><path fill="#0d0d2a" d="M523 410h1v12l-3-1-1-6h3z"/><path fill="#d05b2a" d="m635 317 3 1-3 4h-3l-1 3h-1v-5l5-1z"/><path fill="#000641" d="m413 710 1 4h-9l-1-3h8z"/><path fill="#03051b" d="M444 702h4l-3 6h-3c.875-4.875.875-4.875 2-6"/><path fill="#dc440b" d="m680 680 2 1c-.531 3.821-1.497 6.062-4 9l-1-4h2l-1-4z"/><path fill="#d63500" d="M598 659h2l-2 10-2-2v-6h2z"/><path fill="#000036" d="m442 626-1 2-6 1v2l-3-1v-2c3.508-1.604 6.144-2.22 10-2m-3 2h2v2h-2z"/><path fill="#ecaf8d" d="M535 558c-9.226 5.556-9.226 5.556-15 6v-2l8-2v-2c4.75-1.125 4.75-1.125 7 0"/><path fill="#c04107" d="m513 555 2 1c-2.125 3.188-3.665 4.249-7 6h-2v2l-3-1z"/><path fill="#e86e33" d="m532 551 2 3-1 2 2.75-1.062c3.128-.903 4.302-1.072 7.25.062-3.634 2.326-6.771 2.163-11 2l-2-3z"/><path fill="#d9501a" d="M592 538h8l1 4h-5z"/><path fill="#d97d4c" d="m593 485 5 1 3 6-1 2q-1.755-1.965-3.5-3.938l-1.969-2.214C593 486 593 486 593 485"/><path fill="#3f475f" d="M346 305h2v14l-1-2h-2z"/><path fill="#999fb2" d="M399 301v2l-2.875.75c-3.212.936-3.212.936-4.5 3.375L391 309l-3 1c1.441-4.322 6.26-9 11-9"/><path fill="#00083d" d="M430 700c2.214.005 3.995 1.787 4 3a4 4 0 0 1-4 4c-1.66-.004-2.996-1.339-3-4a3 3 0 0 1 3-3"/><path fill="#e6a07c" d="m583 686 2 4h2c2 5.625 2 5.625 2 9-2.981-2.555-4.463-5.415-6-9z"/><path fill="#e38757" d="m680 644 3 2 1 11-3 2 .035-2.012c.084-6.551.084-6.551-1.035-12.988"/><path fill="#000118" d="m431 635 9 3v4c-3.459-1.249-6.147-2.675-9-5z"/><path fill="#000020" d="m203 616 10 1v2h-11z"/><path fill="#0a0c22" d="m486 555 6 3v2l2 1c-4.268 0-4.939-.376-8-3z"/><path fill="#202742" d="m423 543 6 1v2l5 1v1c-3.856.22-6.492-.396-10-2z"/><path fill="#df3100" d="M603 536h6l1 3h-10z"/><path fill="#c5390e" d="m569 456 4 1v4h2v3c-3.423-1.141-4.148-2.001-6-5z"/><path fill="#d0551b" d="m608 449 6 5v2c-4.875-.875-4.875-.875-6-2z"/><path fill="#dd8456" d="M561 396c6.571 5 6.571 5 8 10l-7-4z"/><path fill="#dd662e" d="m544 378 10 10-8-2-.438-2.312c-.525-2.77-.525-2.77-1.562-5.688"/><path fill="#00011a" d="m223 710-1 3c-3.473 1.158-6.361 1.069-10 1 3.112-3.112 6.651-4 11-4"/><path fill="#de5418" d="M545 707h2l-2 5h-5l-3-4h6l1 1z"/><path fill="#d93d04" d="M607 707c1.66.004 2.996 1.34 3 2a3 3 0 0 1-3 3c-1.107-.002-1.997-.893-2-3a2 2 0 0 1 2-2"/><path fill="#040821" d="M229 703h7l-2 3h-2v2l-5-1 2-1z"/><path fill="#000024" d="M433 694c-1.152 2.468-2.048 4.048-4 6h-3v-3c3.625-3 3.625-3 7-3"/><path fill="#d24a0c" d="M677 641c4.429 5.143 4.429 5.143 5 9l-5-2z"/><path fill="#d43502" d="M537 552h5l1 2c-3.508 1.604-6.144 2.22-10 2v-2h4z"/><path fill="#d84501" d="M523 551c2 2 2 2 2 5-3.393-.54-6.662-1.166-10-2z"/><path fill="#000233" d="m431 540 1 2h6v1l-11 1-1-2z"/><path fill="#454c68" d="m444 518 4 2h-3v2l3 1c-4.084-.743-8.019-1.829-12-3 2.463-1.231 4.28-1.072 7-1z"/><path fill="#d74102" d="m600 485 3 3v5l-4-2z"/><path fill="#b83407" d="m553 440 4 1v2l4 1v4h-2v-2h-2z"/><path fill="#00043d" d="M378 703c4.75 1.875 4.75 1.875 7 3v3l-4 1v-3l-3-2z"/><path fill="#00010f" d="M240 694h2c-.599 3.356-1.846 5.378-4 8h-2v-3h2z"/><path fill="#000015" d="M412 672h2v2h6v2h-9z"/><path fill="#000742" d="m205 672 4 2v2h-8l1-3z"/><path fill="#0d143a" d="M405 672h6l1 3-1 1h-6z"/><path fill="#db7b4b" d="M592 630v7l-4 2-1-2c1.522-2.629 2.844-4.844 5-7"/><path fill="#091845" d="m435 533 7 1-5 5-4-2 3-2z"/><path fill="#131634" d="M473 529a3.001 3.001 0 0 1 0 6 3.001 3.001 0 0 1 0-6"/><path fill="#d57242" d="M565 370h4v4h6l-1 2-6-1z"/><path fill="#00073f" d="M520 263v2h-3v3l-4-2v-2c2.463-1.231 4.28-1.072 7-1"/><path fill="#080c38" d="m427 672 2 2-2 6-5-1 3-2-2-2z"/><path fill="#da3600" d="M644 634h7v4h-3v-2h-4z"/><path fill="#475064" d="m376 625 1 3-4 2v3h-2l-1 3v-4h2l.312-1.812c.777-2.47 1.759-3.511 3.688-5.188"/><path fill="#2c354f" d="M174 619v2l-2 1-1 3h-2v-2l-4 1c1.631-3.262 5.38-5 9-5"/><path fill="#000226" d="M413 529h9l-1 3-8-1z"/><path fill="#02041c" d="M452 522c3.344.557 6.033 1.352 9 3v1c-5.625.25-5.625.25-9-2z"/><path fill="#01031e" d="M422 497c3.146-.262 4.618-.248 7.312 1.5L431 500c-2.788 1.033-3.868 1.045-6.75.062L422 499z"/><path fill="#000223" d="m402 466 8 2v2h-7z"/><path fill="#002" d="M380 269h4v2l-9 3z"/><path fill="#647183" d="M422 658h8v2l4 1c-4.548.178-7.879-.002-12-2z"/><path fill="#505972" d="M170 647c0 2.953-.439 4.491-1.5 7.188l-.844 2.167L167 658c-1.117-3.719-1.117-3.719-.062-6.25L168 650l-2-1z"/><path fill="#d83600" d="m858 626 1 3-3 4h-3v-2l2-1 1-3z"/><path fill="#1a2749" d="M412 630h2v3l2 1-11-1v-1h7z"/><path fill="#d76c38" d="M657 620c3.817 1.555 6.192 4.036 9 7-3.784-.925-5.567-1.394-7.875-4.625z"/><path fill="#dc4108" d="m654 620 4 1 2 4h-4z"/><path fill="#000020" d="m493 561 1 3h-2l-1 2h-5v-2z"/><path fill="#d8753c" d="m545 432 6 2 2 7-5-5v-2l-3-1z"/><path fill="#d9480c" d="M642 308h2v2l2 1-6 4c.875-5.875.875-5.875 2-7"/><path fill="#7a8394" d="M384 714c4.03.553 8.02 1.156 12 2v1h-9z"/><path fill="#d93500" d="M559 709h2v5h-7l2-3v2l2-1z"/><path fill="#010320" d="m375 689 5 1-1 3-4 1z"/><path fill="#df7035" d="M604 680a3.001 3.001 0 0 1 0 6 3.001 3.001 0 0 1 0-6"/><path fill="#434f6a" d="M424 679h6l1 5c-2.884-1.293-4.872-2.659-7-5"/><path fill="#ce561f" d="M509 671h2v2h4v5c-4.875-3.625-4.875-3.625-6-7"/><path fill="#393f56" d="M438 661a4 4 0 1 1-.002 8.002A4 4 0 0 1 438 661"/><path fill="#000018" d="M202 632v2h-8l-1-2c5.625-1.125 5.625-1.125 9 0"/><path fill="#d97c48" d="M495 620c2.5 2.312 2.5 2.312 5 5v3l-4-2 1-2h-2z"/><path fill="#d15b29" d="M552 333c4.875 2.625 4.875 2.625 6 6h-3c-3-3.75-3-3.75-3-6"/><path fill="#000016" d="M353 295c1.66.004 2.996 1.34 3 2a3 3 0 0 1-3 3c-1.107-.002-1.997-.893-2-3a2 2 0 0 1 2-2"/><path fill="#e53400" d="M607 700a3.001 3.001 0 0 1 0 6 3.001 3.001 0 0 1 0-6"/><path fill="#d93502" d="m655 692-1 3-5 2-1-3c4.75-2 4.75-2 7-2"/><path fill="#d66227" d="M527 667h5l3 3-1 2-3-1-1-2h-3z"/><path fill="#000019" d="m387 665 1 2-1 3h-2v-2l-4-1z"/><path fill="#b0b8c4" d="m176 641 1 2-5 6-1-3z"/><path fill="#000c43" d="M435 624v3l-3 1 1-3zm-4 4 4 4-4-1z"/><path fill="#000015" d="M169 623v2h-2v2l-5 2v-2h2l1-3c2-1 2-1 4-1"/><path fill="#db6118" d="M622 615h8l-1 3-7-1z"/><path fill="#20264d" d="m480 551 4 1 1 3-2 4-2-1 2-5h-3z"/><path fill="#000019" d="m345 525 3 3-1 5-2-2z"/><path fill="#0b1331" d="m400 525 10 1v1l-9 1-2-2z"/><path fill="#0b1225" d="M473 519c4.875 2.625 4.875 2.625 6 6l-5-2z"/><path fill="#081131" d="M402 508v2l-11-1v-1c7.625-1.125 7.625-1.125 11 0"/><path fill="#080b25" d="M402 420h3v4h-3l-1 2a99 99 0 0 1 0-5z"/><path fill="#d56f38" d="m580 345 1 4h-2v2l-4-1z"/><path fill="#e23300" d="M621 325h3v4h-3l-1 2-1-3z"/><path fill="#3c445e" d="M398 263h-2l-1 3-7-1c6.25-3.125 6.25-3.125 10-2"/><path fill="#c6480a" d="M541 711c2.169.506 4 1 6 2v2l-5-1z"/><path fill="#d73e00" d="M855 699h6v8h-1l-.812-2.875c-.938-3.378-.938-3.378-4.188-5.125"/><path fill="#d45f28" d="m530 698 5 1v5l-5-4z"/><path fill="#000131" d="M379 691h2l1 4-4 1-1-3h2zm-3 5 2 1-2 1z"/><path fill="#d65111" d="m656 687 1 2-1 3-6 2z"/><path fill="#1f2945" d="m420 674 2 4h-6l-2-2h6z"/><path fill="#000031" d="M225 632h3v2l-3 3h-3c1.875-3.875 1.875-3.875 3-5"/><path fill="#00001d" d="m205 632 7 2 1 2-7-1z"/><path fill="#df4c00" d="M626 617c2 2 2 2 2 4l-7-1 1-2z"/><path fill="#d24002" d="M507 565h2c-1.049 2.622-1.649 3.794-4.125 5.25L503 571v-3l4-1z"/><path fill="#141730" d="M466 515c2.915 1.074 4.778 1.778 7 4h-6z"/><path fill="#e43100" d="m620 455 2 3-1 4h-2q-.063-3 0-6z"/><path fill="#000441" d="m459 443 6 1v2h-7z"/><path fill="#000025" d="m520 417 3 3-1 5h-2z"/><path fill="#d36527" d="m559 364 5 1 1 5-6-5z"/><path fill="#dd8250" d="M633 294h4l1 3h-7z"/><path fill="#1e2239" d="m147 688 4 1v6c-2.5-2.174-3.436-3.73-4-7"/><path fill="#e13400" d="M677 683h2v3h-2l1 5h-2a197 197 0 0 1 0-7z"/><path fill="#d55d1e" d="M515 678h3v2l2 1-2 3c-3-4.875-3-4.875-3-6"/><path fill="#030929" d="M145 671h1v7h-3a85 85 0 0 1 2-7"/><path fill="#000e46" d="M418 661h3l2 5h-3v-2l-3-1z"/><path fill="#000b3f" d="m399 658-5 3-3-1c2.859-2.859 4.137-3.288 8-2"/><path fill="#d56327" d="M618 634h7c-2.666 1.777-5.028 2.875-8 4z"/><path fill="#000134" d="m159 631 4 2-1 2h-5v-2h2z"/><path fill="#090f31" d="m203 631 3 1v2l3 2c-4.75-.875-4.75-.875-7-2z"/><path fill="#000032" d="m211 630 4 1c-2 2-2 2-5 3l-4-2h5z"/><path fill="#000023" d="M436 619a3.001 3.001 0 0 1 0 6 3.001 3.001 0 0 1 0-6"/><path fill="#00002c" d="M218 621h6v2l-7 1z"/><path fill="#d6631b" d="m490 617 4 1 1 4-5-2z"/><path fill="#e43400" d="m525 553 5 1v3h-4z"/><path fill="#697080" d="m504 549 1 2c-3 2-3 2-7 2v-3z"/><path fill="#3e4c67" d="M442 503c6.75 1.75 6.75 1.75 9 4h-5v-2h-4z"/><path fill="#cd5612" d="m531 413 2 1v2h2l-1 4-3-3z"/><path fill="#000b40" d="m492 387 3 1-4 4zm-4 6 2 1-2 1z"/><path fill="#020001" d="M517 355h7v4h-2v-2l-5-1z"/><path fill="#d83800" d="M564 345v2l-4 1-2-3c2.491-1.245 3.411-.777 6 0"/><path fill="#c9581c" d="m558 339 6 5-4 1c-2-3.75-2-3.75-2-6"/><path fill="#db3300" d="m543 333 3 1-3 1-1 4-3-2 3-1z"/><path fill="#00001e" d="M347 309h2l1 5-3 1z"/><path fill="#000326" d="M391 301h2l-1 4-5 1v-2h3z"/><path fill="#d33702" d="m532 671 4 2v4h-2z"/><path fill="#de4c04" d="M510 666a3.001 3.001 0 0 1 0 6 3.001 3.001 0 0 1 0-6"/><path fill="#060822" d="M381 663a2 2 0 1 1-.001 4.001A2 2 0 0 1 381 663"/><path fill="#ce3307" d="m659 647 4 1-1 4-3-2z"/><path fill="#c64410" d="m610 639 3 1-6 5v-3h2z"/><path fill="#010427" d="M426 634h5l1 4-6-2z"/><path fill="#000b43" d="M379 627h5l2 3-7-1z"/><path fill="#dd5008" d="m605 622 2 1-4 3-2-2zm-3 4 1 2-2-1z"/><path fill="#e89b75" d="m650 617 6 1 1 2-7-1z"/><path fill="#e03900" d="M629 616h5l-2 3-3-1zm-1 2 1 2-2-1z"/><path fill="#391818" d="M500 565h1v8l-4-1 2-2c.648-2.571.648-2.571 1-5"/><path fill="#e55306" d="M502 565h4l-1 3h-2l-1 3z"/><path fill="#e74400" d="m522 555 3 2h-2l-1 3-2-1v-3z"/><path fill="#cd430b" d="m590 539 5 1 1 2h-6z"/><path fill="#cc4712" d="M551 535h6l-3 3-5-1z"/><path fill="#000236" d="M477 529c1.66.004 2.996 1.34 3 2a3 3 0 0 1-3 3c-1.107-.002-1.997-.893-2-3a2 2 0 0 1 2-2"/><path fill="#00053b" d="m467 521 2 3-3 2-3-1z"/><path fill="#c24b10" d="m583 472 4 1 1 3h-3z"/><path fill="#e23100" d="m581 363-2 4-3 1v-3c3-2 3-2 5-2"/><path fill="#cb4911" d="m602 345 4 2-5 4z"/><path fill="#d34c0e" d="M610 337h6l-2 3h-4z"/><path fill="#000016" d="m273 711 8 2v1l-8 1z"/><path fill="#cf450a" d="M523 688h4v4l-4-2z"/><path fill="#20293f" d="m442 665 6 4c-2.491 1.245-3.411.777-6 0z"/><path fill="#00011d" d="m391 649 1 2h2l1 3-3 1-2-5z"/><path fill="#d25210" d="M652 640h4l1 5z"/><path fill="#000021" d="M217 638h4v4l-4-2z"/><path fill="#383e54" d="M442 622h4l2 4h-4v-3z"/><path fill="#e33600" d="M482 618h4l-1 4-3-1z"/><path fill="#596580" d="M220 618a101 101 0 0 1 6 2l1 2-7-1z"/><path fill="#12172b" d="M478 536h5l-1 4z"/><path fill="#000010" d="M522 530h1v6h-3z"/><path fill="#2a324b" d="M478 522h2v2l4 2-4 1z"/><path fill="#000941" d="m393 493 5 1v2l-5-2z"/><path fill="#00072b" d="M378 471h2v5h-3z"/><path fill="#d33f00" d="m612 456 5 2-1 3-4-3z"/><path fill="#e44b00" d="m541 423 4 1-1 4-3-2z"/><path fill="#e13400" d="m597 347 4 1v3h-4z"/><path fill="#d17444" d="m537 342 6 3-1 3-5-4z"/><path fill="#00011a" d="m384 309 2 3-2 3h-2v-4h2z"/><path fill="#3c4259" d="M364 279h3v2l-3 2-3-1z"/><path fill="#010e46" d="M371 700c1.66.004 2.996 1.34 3 2a3 3 0 0 1-3 3c-1.107-.002-1.997-.893-2-3a2 2 0 0 1 2-2"/><path fill="#15192a" d="M151 695h4v5l-4-4z"/><path fill="#010319" d="m170 687 4 2 1 3c-1.938-.812-1.938-.812-4-2z"/><path fill="#000c3c" d="M295 667c1.66.004 2.996 1.34 3 2a3 3 0 0 1-3 3c-1.107-.002-1.997-.893-2-3a2 2 0 0 1 2-2"/><path fill="#dc520f" d="M599 654h2v6l-2-1-1-4z"/><path fill="#c6511e" d="m669 629 5 5-5-1z"/><path fill="#0e1128" d="M235 629c1.66.004 2.996 1.34 3 2a3 3 0 0 1-3 3c-1.107-.002-1.997-.893-2-3a2 2 0 0 1 2-2"/><path fill="#c74c0e" d="m513 555 2 1-2 3-4-1z"/><path fill="#de4500" d="m589 538 3 1h-2v3l-4-1z"/><path fill="#000027" d="m430 533 7 1-1 2-6-2z"/><path fill="#00001f" d="M465 528h5l-1 4z"/><path fill="#10142d" d="M465 421h3v5h-2z"/><path fill="#cf3f0c" d="M624 325h3l-1 4-2 1z"/><path fill="#000742" d="M407 263h7l-2 3h-2v-2z"/><path fill="#d25409" d="m619 713 4 3-7-1z"/><path fill="#1a2443" d="m182 713 2 2c-3.29 1.097-4.713.8-8 0v-1z"/><path fill="#525864" d="m366 701 2 2-2 3-2-1z"/><path fill="#2b344f" d="m451 695 1 4-2 2-1-5z"/><path fill="#d24704" d="m610 691 5 3-4 1z"/><path fill="#00002b" d="m159 689 2 2-4 3c.875-3.875.875-3.875 2-5"/><path fill="#000010" d="M432 663h6v2l-3 1z"/><path fill="#293143" d="m238 631 4 4-3 1z"/><path fill="#000d44" d="m206 629 5 2v1h-5z"/><path fill="#d06022" d="M523 559h5l-3 3-3-1z"/><path fill="#00001a" d="M468 547h3v2l3 1h-5z"/><path fill="#000541" d="M501 544h2v3l-4 1z"/><path fill="#070b28" d="m505 545 2 2-4 3v-4z"/><path fill="#ce3c03" d="m614 521 5 1-4 2-2-2z"/><path fill="#c9530a" d="M611 503h5l-1 3-4-1z"/><path fill="#d44e0c" d="M607 499h5l-2 4z"/><path fill="#e84c00" d="m610 458 4 1-1 3-3-2z"/><path fill="#c15724" d="M571 409c3.875 1.75 3.875 1.75 5 4l-5-1z"/><path fill="#bc3905" d="M537 339h2l2 5-4-2z"/><path fill="#b8beca" d="m390 306 3 1-3 3h-2z"/><path fill="#00083f" d="m400 267 4 1-2 2h-3z"/><path fill="#000942" d="m151 682 1 3-3 3c.875-4.875.875-4.875 2-6"/><path fill="#df3100" d="M514 670h2l2 4-4-1z"/><path fill="#000017" d="m389 669 5 2v1h-5z"/><path fill="#d3560f" d="M522 657h2l2 4-4-1z"/><path fill="#02041b" d="M176 638h2l-2 4h-2z"/><path fill="#00002d" d="m181 625 3 1v2h-5z"/><path fill="#272b42" d="m490 557 2 1v2l2 1h-4z"/><path fill="#151c34" d="m468 544-3 2-4-2c2.667-1.333 4.167-.671 7 0"/><path fill="#c73302" d="m648 534 1 4-4-1z"/><path fill="#090f31" d="M423 512h3v4h-2z"/><path fill="#001344" d="M451 511h3v4h-2z"/><path fill="#000015" d="m402 466 5 2-4 1z"/><path fill="#d26c3e" d="m571 460 4 1v3l-3-1z"/><path fill="#cc4511" d="M561 444v4h-2v-2l-2-1c2-1 2-1 4-1"/><path fill="#d95711" d="m640 347 1 4-4-1z"/><path fill="#d35821" d="m564 345 4 4h-4z"/><path fill="#da3f04" d="m585 342 3 1-2 2h-3v-2z"/><path fill="#de794d" d="m590 335 1 4-4-1z"/><path fill="#e13200" d="m735 711 4 1v2l-4-1z"/><path fill="#20283c" d="M178 693h4v2l-3 1z"/><path fill="#0a0f33" d="m387 667 3 1-2 4z"/><path fill="#111b3b" d="m144 653 2 3-3 2z"/><path fill="#040c28" d="m172 641 3 1-3 3-1-2z"/><path fill="#d34b0e" d="m506 636 3 2v2h-3z"/><path fill="#000235" d="M488 561h3l-1 3-3-1z"/><path fill="#000024" d="M480 553h3l-1 3-3-1z"/><path fill="#0a0f2b" d="m465 545 5 1-3 2z"/><path fill="#000d42" d="M367 523h3v3h-3z"/><path fill="#000d40" d="M378 489h2v3l-4-1z"/><path fill="#de490e" d="M596 351h5l-4 3z"/><path fill="#e74800" d="m564 349 3 1-2 2-3-1z"/><path fill="#d63800" d="m612 335 4 1-4 2z"/><path fill="#010329" d="m353 301-1 4-1-2-2-1c2-1 2-1 4-1"/><path fill="#000023" d="m371 275 3 1-4 3z"/><path fill="#d94300" d="m791 712 4 2-4 1z"/><path fill="#000110" d="M446 702h2l-2 4-1-3z"/><path fill="#000e42" d="m378 703 4 2-3 1z"/><path fill="#b7bfcb" d="M394 636h2l-2 4-1-3z"/><path fill="#d15008" d="M615 635h3l-1 3h-2z"/><path fill="#21263d" d="M445 631h2l-2 4-1-3z"/><path fill="#00001f" d="M225 623h3v3l-3-1z"/><path fill="#d44600" d="m626 617 2 2-2 1-4-2z"/><path fill="#000337" d="m484 559 3 1-4 2z"/><path fill="#000038" d="m444 544 2 1v3h-2l-1-3z"/><path fill="#df3600" d="M611 523h4l-1 3z"/><path fill="#060b26" d="m476 521 3 2v2l-3-1z"/><path fill="#1d2443" d="m462 513 4 1-3 2z"/><path fill="#00001e" d="M455 511h3l-1 3h-2z"/><path fill="#d36629" d="m611 453 3 1v2h-3z"/><path fill="#e14703" d="m609 319 2 4-3-1z"/><path fill="#d73100" d="M610 318h3l-1 3h-2z"/><path fill="#000119" d="m358 288 3 1-4 2z"/><path fill="#e84d00" d="m727 706 3 1-1 2h-2z"/><path fill="#df4a09" d="m599 704 3 1-3 2z"/><path fill="#001243" d="m230 696 3 1v2l-3-1z"/><path fill="#000b42" d="m164 644 3 1-2 3z"/><path fill="#000f3c" d="m425 620 3 1-1 2h-2z"/><path fill="#001646" d="m454 546 3 1v2l-3-1z"/><path fill="#222a4b" d="m466 515 4 2-3 1z"/><path fill="#e84d00" d="M575 450h2l-1 3h-2z"/><path fill="#000227" d="m377 376 3 1v2l-3-1z"/><path fill="#da5017" d="M621 329h3l-1 3-2-1z"/><path fill="#e84a00" d="m649 700 2 2-3 1z"/><path fill="#010627" d="m219 639 2 1v2l-3-1z"/><path fill="#e03700" d="m694 622 2 2-3 1z"/><path fill="#09122f" d="m435 619 3 1-2 2z"/><path fill="#00083d" d="m457 548 2 1v2l-3-1z"/><path fill="#020d2c" d="m392 635 2 2h-3z"/></svg>